<?xml version="1.0" encoding="UTF-8" standalone="no"?>
<svg
   xmlns:dc="http://purl.org/dc/elements/1.1/"
   xmlns:cc="http://creativecommons.org/ns#"
   xmlns:rdf="http://www.w3.org/1999/02/22-rdf-syntax-ns#"
   xmlns:svg="http://www.w3.org/2000/svg"
   xmlns="http://www.w3.org/2000/svg"
   xmlns:sodipodi="http://sodipodi.sourceforge.net/DTD/sodipodi-0.dtd"
   xmlns:inkscape="http://www.inkscape.org/namespaces/inkscape"
   width="154.74353mm"
   height="87.235939mm"
   viewBox="0 0 154.74353 87.235939"
   version="1.1"
   id="svg8"
   inkscape:version="1.0.1 (3bc2e813f5, 2020-09-07)"
   sodipodi:docname="print.svg"
   inkscape:export-filename="/home/rewarp/GTSS/Penang Science Cluster/PythonCFA/local-master/intro/docs/illustrations/print.png"
   inkscape:export-xdpi="304.27802"
   inkscape:export-ydpi="304.27802">
  <defs
     id="defs2" />
  <sodipodi:namedview
     id="base"
     pagecolor="#ffffff"
     bordercolor="#666666"
     borderopacity="1.0"
     inkscape:pageopacity="1"
     inkscape:pageshadow="2"
     inkscape:zoom="0.7"
     inkscape:cx="81.691885"
     inkscape:cy="239.62364"
     inkscape:document-units="mm"
     inkscape:current-layer="layer1"
     inkscape:document-rotation="0"
     showgrid="false"
     inkscape:window-width="1920"
     inkscape:window-height="1051"
     inkscape:window-x="0"
     inkscape:window-y="0"
     inkscape:window-maximized="1"
     fit-margin-top="0"
     fit-margin-left="0"
     fit-margin-bottom="0"
     fit-margin-right="0" />
  <metadata
     id="metadata5">
    <rdf:RDF>
      <cc:Work
         rdf:about="">
        <dc:format>image/svg+xml</dc:format>
        <dc:type
           rdf:resource="http://purl.org/dc/dcmitype/StillImage" />
        <dc:title></dc:title>
      </cc:Work>
    </rdf:RDF>
  </metadata>
  <g
     inkscape:label="Layer 1"
     inkscape:groupmode="layer"
     id="layer1"
     transform="translate(-72.810863,-77.679308)">
    <path
       d="m 117.4409,124.91525 c -5.49997,0 -10.00006,5.59999 -10.00006,12.5 0,6.89999 4.50009,12.5 10.00006,12.5 5.49997,0 10.00005,-5.60001 10.00005,-12.5 0,-6.90001 -4.50008,-12.5 -10.00005,-12.5 z m -10.45002,25 c -5.30003,0.25002 -9.549917,4.59999 -9.549917,9.99999 v 5.00001 h 39.999867 v -5.00001 c 0,-5.4 -4.2,-9.74999 -9.54992,-9.99999 -2.69991,3.05 -6.40006,4.99999 -10.45001,4.99999 -4.04996,0 -7.74992,-1.94999 -10.45002,-4.99999 z"
       id="path851"
       style="fill:#552200;stroke-width:5" />
    <path
       d="m 93.386888,77.679308 c -0.249762,0 -0.501415,0.200188 -0.650894,0.450517 l -4.70593,9.06136 c -0.0946,0.250329 -0.350045,0.450517 -0.650894,0.450517 h -7.058801 c -4.155317,0 -7.509506,3.354207 -7.509506,7.509412 v 22.077676 c 0,0.25033 0.200567,0.45052 0.450328,0.45052 h 39.099079 c 0.24976,0 0.45033,-0.20019 0.45033,-0.45052 V 88.142342 c 0,-0.300471 -0.20057,-0.450517 -0.45033,-0.450517 h -4.05503 c -0.24976,0 -0.50142,-0.200188 -0.65089,-0.450517 l -4.70593,-9.06136 c -0.15138,-0.25033 -0.35005,-0.450517 -0.6509,-0.450517 H 93.236085 Z M 80.420652,92.698131 c 1.402073,0 2.503107,1.101411 2.503107,2.503124 0,1.401694 -1.101223,2.503144 -2.503107,2.503144 -1.402072,0 -2.503105,-1.101411 -2.503105,-2.503144 0,-1.401694 1.101222,-2.503124 2.503105,-2.503124 z m 17.52193,0 c 5.506868,0 10.012608,4.505647 10.012608,10.012539 0,5.5069 -4.50574,10.01255 -10.012608,10.01255 -5.50687,0 -10.012611,-4.50565 -10.012611,-10.01255 0,-5.506892 4.505741,-10.012539 10.012611,-10.012539 z m 0,5.006268 c -2.753435,0 -5.006211,2.252813 -5.006211,5.006271 0,2.75345 2.252776,5.00629 5.006211,5.00629 2.753438,0 5.006208,-2.25284 5.006208,-5.00629 0,-2.753458 -2.25277,-5.006271 -5.006208,-5.006271 z"
       id="path862"
       style="fill:#800080;stroke-width:5.00627" />
    <g
       id="g888"
       transform="matrix(28.311088,0,0,28.311088,-3844.4914,1613.4444)">
      <path
         d="m 142.55686,-54.246064 c -0.0291,0 -0.0503,0.02117 -0.0503,0.05027 v 2.018771 c 0,0.0291 0.0212,0.05027 0.0503,0.05027 h 1.22503 c 0.0291,0 0.0503,-0.02117 0.0503,-0.05027 v -2.018771 c 0,-0.0291 -0.0212,-0.05027 -0.0503,-0.05027 z m 0.21432,0.264584 h 0.79375 v 1.322916 h -0.79375 z m 0.39687,1.455208 c 0.0741,0 0.13229,0.05821 0.13229,0.132292 0,0.07408 -0.0582,0.132291 -0.13229,0.132291 -0.0741,0 -0.13229,-0.05821 -0.13229,-0.132291 0,-0.07408 0.0582,-0.132292 0.13229,-0.132292 z"
         id="path873"
         style="fill:#008080;stroke-width:0.264583" />
      <path
         d="m 143.2159,-53.425656 c -0.0959,0 -0.17453,0.10739 -0.17453,0.239714 0,0.132321 0.0785,0.239716 0.17453,0.239716 0.0959,0 0.17451,-0.10739 0.17451,-0.239716 0,-0.132321 -0.0785,-0.239714 -0.17451,-0.239714 z m -0.18238,0.47943 c -0.0925,0.0047 -0.16667,0.08821 -0.16667,0.191771 v 0.09589 h 0.69808 v -0.09589 c 0,-0.103557 -0.0733,-0.186977 -0.16665,-0.191771 -0.0471,0.05849 -0.11175,0.09589 -0.18238,0.09589 -0.0707,0 -0.13525,-0.03739 -0.18238,-0.09589 z"
         id="path884"
         style="fill:#552200;stroke-width:0.091472" />
    </g>
    <path
       d="m 159.69162,96.20213 v 7.83742 h -19.59346 v 7.83741 h 19.59346 v 7.83743 l 11.75614,-11.87369 z"
       id="path890"
       style="stroke-width:3.91871" />
  </g>
</svg>
