<?xml version="1.0" encoding="UTF-8" standalone="no"?>
<svg
   xmlns:dc="http://purl.org/dc/elements/1.1/"
   xmlns:cc="http://creativecommons.org/ns#"
   xmlns:rdf="http://www.w3.org/1999/02/22-rdf-syntax-ns#"
   xmlns:svg="http://www.w3.org/2000/svg"
   xmlns="http://www.w3.org/2000/svg"
   xmlns:sodipodi="http://sodipodi.sourceforge.net/DTD/sodipodi-0.dtd"
   xmlns:inkscape="http://www.inkscape.org/namespaces/inkscape"
   width="145.3812mm"
   height="242.25987mm"
   viewBox="0 0 145.3812 242.25987"
   version="1.1"
   id="svg8"
   inkscape:version="1.0.1 (3bc2e813f5, 2020-09-07)"
   sodipodi:docname="while-if-ifelse.svg"
   inkscape:export-filename="/home/rewarp/GTSS/Penang Science Cluster/PythonCFA/local-master/intro/docs/illustrations/while-if-ifelse.png"
   inkscape:export-xdpi="304.27802"
   inkscape:export-ydpi="304.27802">
  <defs
     id="defs2" />
  <sodipodi:namedview
     id="base"
     pagecolor="#ffffff"
     bordercolor="#666666"
     borderopacity="1.0"
     inkscape:pageopacity="1"
     inkscape:pageshadow="2"
     inkscape:zoom="0.7"
     inkscape:cx="-123.45119"
     inkscape:cy="473.6103"
     inkscape:document-units="mm"
     inkscape:current-layer="layer1"
     inkscape:document-rotation="0"
     showgrid="false"
     inkscape:window-width="1920"
     inkscape:window-height="1051"
     inkscape:window-x="0"
     inkscape:window-y="0"
     inkscape:window-maximized="1"
     fit-margin-top="0"
     fit-margin-left="0"
     fit-margin-right="0"
     fit-margin-bottom="0" />
  <metadata
     id="metadata5">
    <rdf:RDF>
      <cc:Work
         rdf:about="">
        <dc:format>image/svg+xml</dc:format>
        <dc:type
           rdf:resource="http://purl.org/dc/dcmitype/StillImage" />
        <dc:title></dc:title>
        <cc:license
           rdf:resource="http://creativecommons.org/licenses/by/4.0/" />
      </cc:Work>
      <cc:License
         rdf:about="http://creativecommons.org/licenses/by/4.0/">
        <cc:permits
           rdf:resource="http://creativecommons.org/ns#Reproduction" />
        <cc:permits
           rdf:resource="http://creativecommons.org/ns#Distribution" />
        <cc:requires
           rdf:resource="http://creativecommons.org/ns#Notice" />
        <cc:requires
           rdf:resource="http://creativecommons.org/ns#Attribution" />
        <cc:permits
           rdf:resource="http://creativecommons.org/ns#DerivativeWorks" />
      </cc:License>
    </rdf:RDF>
  </metadata>
  <g
     inkscape:label="Layer 1"
     inkscape:groupmode="layer"
     id="layer1"
     transform="translate(-29.736743,-12.871383)">
    <text
       xml:space="preserve"
       style="font-style:normal;font-variant:normal;font-weight:normal;font-stretch:normal;font-size:4.23333px;line-height:1.25;font-family:'Liberation Sans';-inkscape-font-specification:'Liberation Sans, Normal';font-variant-ligatures:normal;font-variant-caps:normal;font-variant-numeric:normal;font-feature-settings:normal;text-align:start;letter-spacing:0px;word-spacing:0px;writing-mode:lr-tb;text-anchor:start;fill:#000000;fill-opacity:1;stroke:none;stroke-width:0.264583"
       x="84.070053"
       y="51.375301"
       id="text861"><tspan
         sodipodi:role="line"
         id="tspan859"
         x="84.070053"
         y="51.375301"
         style="font-size:4.23333px;stroke-width:0.264583" /></text>
    <text
       xml:space="preserve"
       style="font-style:normal;font-variant:normal;font-weight:normal;font-stretch:normal;font-size:19.7556px;line-height:1.25;font-family:'Noto Color Emoji';-inkscape-font-specification:'Noto Color Emoji';font-variant-ligatures:normal;font-variant-caps:normal;font-variant-numeric:normal;font-feature-settings:normal;text-align:start;letter-spacing:0px;word-spacing:0px;writing-mode:lr-tb;text-anchor:start;fill:#000000;fill-opacity:1;stroke:none;stroke-width:0.264583"
       x="91.621521"
       y="46.115273"
       id="text869"><tspan
         sodipodi:role="line"
         id="tspan867"
         x="91.621521"
         y="46.115273"
         style="font-style:normal;font-variant:normal;font-weight:normal;font-stretch:normal;font-family:'Noto Color Emoji';-inkscape-font-specification:'Noto Color Emoji';stroke-width:0.264583" /></text>
    <text
       xml:space="preserve"
       style="font-style:normal;font-variant:normal;font-weight:normal;font-stretch:normal;font-size:19.7556px;line-height:1.25;font-family:'Liberation Sans';-inkscape-font-specification:'Liberation Sans, Normal';font-variant-ligatures:normal;font-variant-caps:normal;font-variant-numeric:normal;font-feature-settings:normal;text-align:start;letter-spacing:0px;word-spacing:0px;writing-mode:lr-tb;text-anchor:start;fill:#000000;fill-opacity:1;stroke:none;stroke-width:0.264583"
       x="94.928078"
       y="45.602417"
       id="text873"><tspan
         sodipodi:role="line"
         id="tspan871"
         x="94.928078"
         y="45.602417"
         style="stroke-width:0.264583" /></text>
    <text
       xml:space="preserve"
       style="font-style:normal;font-variant:normal;font-weight:normal;font-stretch:normal;font-size:19.7556px;line-height:1.25;font-family:'Liberation Sans';-inkscape-font-specification:'Liberation Sans, Normal';font-variant-ligatures:normal;font-variant-caps:normal;font-variant-numeric:normal;font-feature-settings:normal;text-align:start;letter-spacing:0px;word-spacing:0px;writing-mode:lr-tb;text-anchor:start;fill:#000000;fill-opacity:1;stroke:none;stroke-width:0.264583"
       x="53.864159"
       y="101.45308"
       id="text917"><tspan
         sodipodi:role="line"
         id="tspan915"
         x="53.864159"
         y="101.45308"
         style="stroke-width:0.264583" /></text>
    <text
       xml:space="preserve"
       style="font-style:normal;font-variant:normal;font-weight:normal;font-stretch:normal;font-size:19.7556px;line-height:1.25;font-family:'DejaVu Math TeX Gyre';-inkscape-font-specification:'DejaVu Math TeX Gyre';font-variant-ligatures:normal;font-variant-caps:normal;font-variant-numeric:normal;font-feature-settings:normal;text-align:start;letter-spacing:0px;word-spacing:0px;writing-mode:lr-tb;text-anchor:start;fill:#000000;fill-opacity:1;stroke:none;stroke-width:0.264583"
       x="173.86722"
       y="56.44558"
       id="text949"><tspan
         sodipodi:role="line"
         id="tspan947"
         x="173.86722"
         y="56.44558"
         style="font-style:normal;font-variant:normal;font-weight:normal;font-stretch:normal;font-family:'DejaVu Math TeX Gyre';-inkscape-font-specification:'DejaVu Math TeX Gyre';stroke-width:0.264583" /></text>
    <text
       xml:space="preserve"
       style="font-style:normal;font-variant:normal;font-weight:normal;font-stretch:normal;font-size:19.7556px;line-height:1.25;font-family:'Liberation Sans';-inkscape-font-specification:'Liberation Sans, Normal';font-variant-ligatures:normal;font-variant-caps:normal;font-variant-numeric:normal;font-feature-settings:normal;text-align:start;letter-spacing:0px;word-spacing:0px;writing-mode:lr-tb;text-anchor:start;fill:#000000;fill-opacity:1;stroke:none;stroke-width:0.264583"
       x="173.86722"
       y="56.44558"
       id="text957"><tspan
         sodipodi:role="line"
         id="tspan955"
         x="173.86722"
         y="56.44558"
         style="stroke-width:0.264583" /></text>
    <text
       xml:space="preserve"
       style="font-style:normal;font-variant:normal;font-weight:normal;font-stretch:normal;font-size:19.7556px;line-height:1.25;font-family:'Liberation Sans';-inkscape-font-specification:'Liberation Sans, Normal';font-variant-ligatures:normal;font-variant-caps:normal;font-variant-numeric:normal;font-feature-settings:normal;text-align:start;letter-spacing:0px;word-spacing:0px;writing-mode:lr-tb;text-anchor:start;fill:#000000;fill-opacity:1;stroke:none;stroke-width:0.264583"
       x="173.45682"
       y="125.9069"
       id="text973"><tspan
         sodipodi:role="line"
         id="tspan971"
         x="173.45682"
         y="125.9069"
         style="stroke-width:0.264583" /></text>
    <path
       d="m 76.936112,76.165399 v 4 h 1.000004 v -4 z m -1.28,1.44 -0.380002,0.31 c -0.810002,0.64 -1.340002,1.639995 -1.340002,2.75 0,1.93 1.570002,3.5 3.500004,3.5 1.930003,0 3.500003,-1.57 3.500003,-3.5 0,-1.110005 -0.53,-2.11 -1.34,-2.75 l -0.380003,-0.31 -0.629996,0.78 0.379996,0.31 c 0.580003,0.46 0.970003,1.17 0.970003,1.97 0,1.39 -1.109998,2.5 -2.500003,2.5 -1.390002,0 -2.5,-1.11 -2.5,-2.5 0,-0.8 0.359999,-1.51 0.939999,-1.97 l 0.409999,-0.31 z"
       id="path1078"
       style="stroke-width:1" />
    <g
       id="g1140"
       transform="translate(-12.163562,17.555111)">
      <path
         id="path1124"
         style="fill:none;stroke:#000000;stroke-width:0.83401;stroke-miterlimit:4;stroke-dasharray:none"
         d="m 69.9816,127.13186 v 39.58299 H 42.31731 v -39.58299"
         sodipodi:nodetypes="cccc" />
      <path
         style="fill:#0000ff;stroke:#0000ff;stroke-width:0.83401;stroke-linecap:butt;stroke-linejoin:miter;stroke-miterlimit:4;stroke-dasharray:1.66802, 0.83401;stroke-dashoffset:0;stroke-opacity:1"
         d="M 43.90373,157.71549 H 68.53279"
         id="path1126" />
    </g>
    <g
       id="g1136"
       transform="translate(105.54607,-48.023405)">
      <path
         id="path1128"
         style="fill:none;stroke:#000000;stroke-width:0.83401;stroke-miterlimit:4;stroke-dasharray:none"
         d="m 69.154865,189.63854 v 39.58299 h -27.66429 v -39.58299"
         sodipodi:nodetypes="cccc" />
      <path
         style="fill:#0000ff;stroke:#0000ff;stroke-width:0.83401;stroke-linecap:butt;stroke-linejoin:miter;stroke-miterlimit:4;stroke-dasharray:1.66802, 0.83401;stroke-dashoffset:0;stroke-opacity:1"
         d="m 43.076995,199.05537 h 24.62906"
         id="path1130" />
    </g>
    <path
       id="path1132"
       style="fill:none;stroke:#000000;stroke-width:0.83401;stroke-miterlimit:4;stroke-dasharray:none"
       d="M 116.25949,92.759689 V 132.34268 H 88.59519 V 92.759689"
       sodipodi:nodetypes="cccc" />
    <g
       id="g1195"
       transform="matrix(0.50002027,0,0,0.50002027,46.688904,48.757254)">
      <path
         d="m 62.481563,119.63749 c -2.41922,0 -4.53846,1.71942 -4.99835,3.99863 -2.19926,0 -3.99863,1.79944 -3.99863,3.9987 0,1.05966 0.39974,1.97937 1.05958,2.67911 0.51989,-0.4398 1.1996,-0.6801 1.93939,-0.6801 0.39974,0 0.77976,0.0998 1.11966,0.25995 0.34004,-1.27963 1.47949,-2.25926 2.87904,-2.25926 1.37953,0 2.53916,0.97963 2.87905,2.25926 0.34004,-0.1398 0.71938,-0.25995 1.11957,-0.25995 1.2596,0 2.29924,0.77977 2.75913,1.8794 1.27955,-0.34005 2.25926,-1.49953 2.25926,-2.87905 0,-1.29958 -0.83976,-2.57913 -1.99939,-2.99897 v -0.99974 c 0,-2.75905 -2.23924,-4.99828 -4.99828,-4.99828 z m -2.31925,9.99665 a 0.99966956,0.99966956 0 0 0 -0.6801,0.99965 v 3.99871 a 0.99966956,0.99966956 0 1 0 1.99932,0 v -3.99871 a 0.99966956,0.99966956 0 0 0 -1.17965,-0.99965 0.99966956,0.99966956 0 0 0 -0.12015,0 z m -3.99863,1.99939 a 0.99966956,0.99966956 0 0 0 -0.68009,0.99965 v 1.99932 a 0.99966956,0.99966956 0 1 0 1.99932,0 v -1.99932 a 0.99966956,0.99966956 0 0 0 -1.17958,-0.99965 0.99966956,0.99966956 0 0 0 -0.12015,0 z m 7.99732,0 a 0.99966956,0.99966956 0 0 0 -0.68009,0.99965 v 1.99932 a 0.999695,0.999695 0 1 0 1.99939,0 v -1.99932 a 0.99966956,0.99966956 0 0 0 -1.17965,-0.99965 0.99966956,0.99966956 0 0 0 -0.12015,0 z"
         id="path1113"
         style="fill:#0000ff;stroke-width:1.99934" />
    </g>
    <path
       d="m 65.68771,172.55184 c -1.209659,0 -2.269322,0.85974 -2.499276,1.9994 -1.099675,0 -1.999396,0.89975 -1.999396,1.99943 0,0.52985 0.199878,0.98972 0.529811,1.33961 0.259956,-0.21991 0.599825,-0.34007 0.969735,-0.34007 0.199878,0 0.389896,0.0499 0.559852,0.12998 0.170027,-0.63984 0.739775,-1.12967 1.439579,-1.12967 0.689793,0 1.269631,0.48983 1.439583,1.12967 0.170027,-0.0699 0.359705,-0.12998 0.559808,-0.12998 0.629825,0 1.149666,0.3899 1.379621,0.93974 0.639801,-0.17003 1.129676,-0.74979 1.129676,-1.43958 0,-0.64982 -0.419897,-1.28962 -0.999736,-1.49955 v -0.49989 c 0,-1.37958 -1.119665,-2.49924 -2.499241,-2.49924 z m -1.159672,4.99853 a 0.49985504,0.49985504 0 0 0 -0.340063,0.49984 v 1.99944 a 0.49985504,0.49985504 0 1 0 0.9997,0 v -1.99944 a 0.49985504,0.49985504 0 0 0 -0.589849,-0.49984 0.49985504,0.49985504 0 0 0 -0.06008,0 z m -1.999396,0.99973 a 0.49985504,0.49985504 0 0 0 -0.340058,0.49985 v 0.9997 a 0.49985504,0.49985504 0 1 0 0.9997,0 v -0.9997 a 0.49985504,0.49985504 0 0 0 -0.589814,-0.49985 0.49985504,0.49985504 0 0 0 -0.06008,0 z m 3.998822,0 a 0.49985504,0.49985504 0 0 0 -0.340058,0.49985 v 0.9997 a 0.49986776,0.49986776 0 1 0 0.999735,0 v -0.9997 a 0.49985504,0.49985504 0 0 0 -0.589849,-0.49985 0.49985504,0.49985504 0 0 0 -0.06008,0 z"
       id="path1197"
       style="fill:#0000ff;stroke-width:0.999711" />
    <g
       id="g1239"
       transform="matrix(0.5,0,0,0.5,70.388062,23.602403)">
      <path
         d="m 139.74443,232.36107 c -0.56013,0 -0.99999,0.43994 -0.99999,0.99999 0,0.56013 0.43993,0.99999 0.99999,0.99999 0.56012,0 0.99999,-0.43994 0.99999,-0.99999 0,-0.56013 -0.43994,-0.99999 -0.99999,-0.99999 z m -5.00003,1.99998 c -0.56013,0 -0.99999,0.43994 -0.99999,0.99999 0,0.56013 0.43994,0.99999 0.99999,0.99999 0.56012,0 0.99999,-0.43994 0.99999,-0.99999 0,-0.56013 -0.43994,-0.99999 -0.99999,-0.99999 z m 10.00005,0 c -0.56012,0 -1.00006,0.43994 -1.00006,0.99999 0,0.56013 0.43994,0.99999 1.00006,0.99999 0.56013,0 0.99999,-0.43994 0.99999,-0.99999 0,-0.56013 -0.43993,-0.99999 -0.99999,-0.99999 z m -5.00002,1.99998 c -2.2,0 -4.00004,1.80005 -4.00004,4.00004 0,2.19999 1.80004,4.00004 4.00004,4.00004 2.19999,0 3.99996,-1.80005 3.99996,-4.00004 0,-2.19999 -1.79997,-4.00004 -3.99996,-4.00004 z m -7.00001,3.00005 c -0.56013,0 -1.00007,0.43994 -1.00007,0.99999 0,0.56013 0.43994,0.99999 1.00007,0.99999 0.56012,0 0.99999,-0.43994 0.99999,-0.99999 0,-0.56013 -0.43994,-0.99999 -0.99999,-0.99999 z m 14.00002,0 c -0.56013,0 -1,0.43994 -1,0.99999 0,0.56013 0.43994,0.99999 1,0.99999 0.56012,0 0.99999,-0.43994 0.99999,-0.99999 0,-0.56013 -0.43994,-0.99999 -0.99999,-0.99999 z m -12.00004,5.00003 c -0.56013,0 -0.99999,0.43994 -0.99999,0.99999 0,0.56013 0.43994,0.99999 0.99999,0.99999 0.56012,0 0.99999,-0.43994 0.99999,-0.99999 0,-0.56013 -0.43994,-0.99999 -0.99999,-0.99999 z m 10.00005,0 c -0.56012,0 -1.00006,0.43994 -1.00006,0.99999 0,0.56013 0.43994,0.99999 1.00006,0.99999 0.56013,0 0.99999,-0.43994 0.99999,-0.99999 0,-0.56013 -0.43993,-0.99999 -0.99999,-0.99999 z m -5.00002,1.99998 c -0.56013,0 -0.99999,0.43994 -0.99999,0.99999 0,0.56013 0.43993,0.99999 0.99999,0.99999 0.56012,0 0.99999,-0.43994 0.99999,-0.99999 0,-0.56013 -0.43994,-0.99999 -0.99999,-0.99999 z"
         id="path1102"
         style="fill:#ff6600;stroke-width:2" />
      <g
         id="g1213"
         transform="translate(78.252468,112.7242)" />
    </g>
    <path
       id="path1265"
       style="fill:none;stroke:#000000;stroke-width:0.83401;stroke-miterlimit:4;stroke-dasharray:none"
       d="m 116.25949,215.13125 v 39.583 h -27.6643 v -39.583"
       sodipodi:nodetypes="cccc" />
    <path
       style="fill:#0000ff;stroke:#0000ff;stroke-width:0.83401;stroke-linecap:butt;stroke-linejoin:miter;stroke-miterlimit:4;stroke-dasharray:1.66802, 0.83401;stroke-dashoffset:0;stroke-opacity:1"
       d="M 90.181609,235.13149 H 114.81067"
       id="path1267" />
    <path
       d="m 145.38855,227.13139 -1.73858,1.8142 -7.00482,7.0048 -2.04097,-1.96538 -1.81418,-1.8142 -3.55282,3.55281 1.8142,1.81419 3.77959,3.77957 1.7386,1.8142 1.8142,-1.8142 8.81896,-8.819 1.81422,-1.81419 z"
       id="path1269"
       style="fill:#008000;stroke-width:2.51971" />
    <path
       style="opacity:0.999;fill:none;stroke:#333333;stroke-width:0.264583px;stroke-linecap:butt;stroke-linejoin:miter;stroke-opacity:1"
       d="M 83.395864,83.377302 V 138.30211 H 61.701867 v 32.8901 H 141.66503 V 148.94816 H 61.798461"
       id="path1280"
       sodipodi:nodetypes="ccccccc" />
    <path
       d="m 81.081303,169.17627 v 4 l 4,-2 z"
       id="path1288"
       style="fill:#333333;stroke:none;stroke-width:0.666665" />
    <path
       d="m 75.88771,140.27342 v -4 l -4,2 z"
       id="path1299"
       style="opacity:0.999;fill:#333333;stroke:none;stroke-width:0.666665"
       sodipodi:nodetypes="cccc" />
    <path
       d="m 124.32705,150.94821 v -4 l -4,2 z"
       id="path1301"
       style="opacity:0.999;fill:#333333;stroke:none;stroke-width:0.666665"
       sodipodi:nodetypes="cccc" />
    <path
       d="m 86.715577,150.94821 v -4 l -4,2 z"
       id="path1305"
       style="opacity:0.999;fill:#333333;stroke:none;stroke-width:0.666665"
       sodipodi:nodetypes="cccc" />
    <path
       d="m 125.72122,169.17627 v 4 l 4,-2 z"
       id="path1307"
       style="fill:#333333;stroke:none;stroke-width:0.666665" />
    <g
       id="g885"
       transform="translate(1.6941405)">
      <path
         style="fill:none;stroke:#333333;stroke-width:0.264583px;stroke-linecap:butt;stroke-linejoin:miter;stroke-opacity:1"
         d="m 103.76325,148.9298 v 15.97059 h 4.33809 v 13.45228 h -4.33809 v 29.21308"
         id="path1284"
         sodipodi:nodetypes="cccccc" />
      <path
         style="fill:none;stroke:#333333;stroke-width:0.264583px;stroke-linecap:butt;stroke-linejoin:miter;stroke-opacity:1"
         d="m 97.338535,171.08809 v 36.47766"
         id="path1286"
         sodipodi:nodetypes="cc" />
      <path
         d="m 105.7554,156.05837 h -4 l 2,4 z"
         id="path1309"
         style="fill:#333333;stroke:none;stroke-width:0.666665" />
      <path
         d="m 99.343489,187.59081 h -4 l 2,4 z"
         id="path1311"
         style="fill:#333333;stroke:none;stroke-width:0.666665" />
    </g>
    <g
       id="g955"
       transform="translate(0,-10.054167)">
      <rect
         style="opacity:0.999;fill:none;stroke:#333333;stroke-width:0.417;stroke-miterlimit:4;stroke-dasharray:3.336, 0.417;stroke-dashoffset:0"
         id="rect1313"
         width="122.07826"
         height="46.919846"
         x="43.961109"
         y="23.134201"
         ry="23.459923" />
      <g
         id="g941"
         transform="translate(0.45193385,0.5060305)">
        <g
           id="g927"
           transform="translate(-16.165431,-6.6853516)">
          <path
             id="path1031"
             style="fill:none;stroke:#000000;stroke-width:0.417;stroke-miterlimit:4;stroke-dasharray:none"
             d="M 127.62957,36.595434 V 56.386702 H 113.79758 V 36.595434"
             sodipodi:nodetypes="cccc" />
          <path
             style="fill:#0000ff;stroke:#0000ff;stroke-width:0.417;stroke-linecap:butt;stroke-linejoin:miter;stroke-miterlimit:4;stroke-dasharray:0.834, 0.417;stroke-dashoffset:0;stroke-opacity:1"
             d="m 114.59078,46.595434 h 12.31439"
             id="path1033" />
        </g>
        <path
           id="path1054"
           style="fill:none;stroke:#000000;stroke-width:0.417464"
           d="M 80.032612,29.910078 V 49.701346 H 66.200622 V 29.910078"
           sodipodi:nodetypes="cccc" />
        <path
           d="m 104.54815,54.268729 c -2.21,0 -4,1.789999 -4,3.999998 0,2.209999 1.79,4.000002 4,4.000002 2.21,0 3.99999,-1.790003 3.99999,-4.000002 0,-2.209999 -1.78999,-3.999998 -3.99999,-3.999998 z m 2,1.779998 0.71999,0.72 -3.21999,3.220002 -1.72,-1.720002 0.72,-0.72 1,1.000003 z"
           id="path881"
           style="fill:#008000;stroke-width:0.999999" />
        <path
           d="m 73.116637,54.268729 c -2.21001,0 -4.00004,1.78999 -4.00004,4 0,2.21001 1.79003,4 4.00004,4 2.20997,0 4,-1.78999 4,-4 0,-2.21001 -1.79003,-4 -4,-4 z m -1.50003,1.78001 1.50003,1.49999 1.49998,-1.49999 0.72001,0.72 -1.49999,1.49999 1.49999,1.50002 -0.72001,0.72001 -1.49998,-1.50003 -1.50003,1.50003 -0.72,-0.72001 1.50003,-1.50002 -1.50003,-1.49999 z"
           id="path892"
           style="fill:#ff0000;stroke-width:1" />
        <g
           id="g923"
           transform="matrix(0.50000006,0,0,0.50000006,108.3183,-64.909203)">
          <path
             id="path919"
             style="fill:none;stroke:#000000;stroke-width:0.83401;stroke-miterlimit:4;stroke-dasharray:none"
             d="m 69.154865,189.63854 v 39.58299 h -27.66429 v -39.58299"
             sodipodi:nodetypes="cccc" />
          <path
             style="fill:#0000ff;stroke:#0000ff;stroke-width:0.83401;stroke-linecap:butt;stroke-linejoin:miter;stroke-miterlimit:4;stroke-dasharray:1.66802, 0.83401;stroke-dashoffset:0;stroke-opacity:1"
             d="m 43.076995,199.05537 h 24.62906"
             id="path921" />
        </g>
        <path
           d="m 135.97968,54.268729 c -2.21001,0 -4.00004,1.78999 -4.00004,4 0,2.21001 1.79003,4 4.00004,4 2.20997,0 4,-1.78999 4,-4 0,-2.21001 -1.79003,-4 -4,-4 z m -1.50003,1.78001 1.50003,1.49999 1.49998,-1.49999 0.72001,0.72 -1.49999,1.49999 1.49999,1.50002 -0.72001,0.72001 -1.49998,-1.50003 -1.50003,1.50003 -0.72,-0.72001 1.50003,-1.50002 -1.50003,-1.49999 z"
           id="path929"
           style="fill:#ff0000;stroke-width:1" />
      </g>
    </g>
  </g>
</svg>
