<?xml version="1.0" encoding="UTF-8" standalone="no"?>
<svg
   xmlns:dc="http://purl.org/dc/elements/1.1/"
   xmlns:cc="http://creativecommons.org/ns#"
   xmlns:rdf="http://www.w3.org/1999/02/22-rdf-syntax-ns#"
   xmlns:svg="http://www.w3.org/2000/svg"
   xmlns="http://www.w3.org/2000/svg"
   xmlns:sodipodi="http://sodipodi.sourceforge.net/DTD/sodipodi-0.dtd"
   xmlns:inkscape="http://www.inkscape.org/namespaces/inkscape"
   version="1.1"
   id="svg2"
   xml:space="preserve"
   width="277.11066"
   height="576.00031"
   viewBox="0 0 277.11065 576.0003"
   sodipodi:docname="Lambang P.Pinang.svg"
   inkscape:version="1.0.2 (e86c870879, 2021-01-15)"><metadata
     id="metadata8"><rdf:RDF><cc:Work
         rdf:about=""><dc:format>image/svg+xml</dc:format><dc:type
           rdf:resource="http://purl.org/dc/dcmitype/StillImage" /><dc:title></dc:title></cc:Work></rdf:RDF></metadata><defs
     id="defs6"><clipPath
       clipPathUnits="userSpaceOnUse"
       id="clipPath18"><path
         d="M 0,841.89 H 595.276 V 0 H 0 Z"
         id="path16" /></clipPath></defs><sodipodi:namedview
     pagecolor="#ffffff"
     bordercolor="#666666"
     borderopacity="1"
     objecttolerance="10"
     gridtolerance="10"
     guidetolerance="10"
     inkscape:pageopacity="0"
     inkscape:pageshadow="2"
     inkscape:window-width="1920"
     inkscape:window-height="1051"
     id="namedview4"
     showgrid="false"
     fit-margin-top="0"
     fit-margin-left="0"
     fit-margin-right="0"
     fit-margin-bottom="0"
     inkscape:zoom="0.63695969"
     inkscape:cx="138.55468"
     inkscape:cy="333.747"
     inkscape:window-x="0"
     inkscape:window-y="0"
     inkscape:window-maximized="1"
     inkscape:current-layer="g10" /><g
     id="g10"
     inkscape:groupmode="layer"
     inkscape:label="Lambang P.Pinang"
     transform="matrix(1.3333333,0,0,-1.3333333,-258.29599,895.00699)"><g
       id="g12"><g
         id="g14"
         clip-path="url(#clipPath18)"><path
           d="m 297.638,272.222 c 25.295,24.851 65.98,30.827 65.98,30.827 v 20.474 c 0,5.698 3.361,7.73 3.361,7.73 l 12.493,7.796 c 16.35,9.682 22.083,19.346 22.083,19.346 v -17.168 c 0,-11.373 -6.874,-14.49 -10.228,-16.875 -3.353,-2.385 -6.621,-6.359 -6.621,-6.359 7.755,-4.042 6.92,-9.549 6.92,-9.549 v -19.951 c 0,-3.899 -2.387,-5.731 -5.219,-6.063 -37.999,-4.454 -64.149,-16.341 -88.769,-43.175 -24.619,26.834 -50.77,38.721 -88.768,43.175 -2.833,0.332 -5.22,2.164 -5.22,6.063 v 19.951 c 0,0 -0.835,5.507 6.92,9.549 0,0 -3.267,3.974 -6.621,6.359 -3.354,2.385 -10.227,5.502 -10.227,16.875 v 17.168 c 0,0 5.733,-9.664 22.083,-19.346 l 12.493,-7.796 c 0,0 3.36,-2.032 3.36,-7.73 v -20.474 c 0,0 40.686,-5.976 65.98,-30.827"
           style="fill:#231f20;fill-opacity:1;fill-rule:nonzero;stroke:none"
           id="path20" /><path
           d="m 297.638,281.977 c 12.239,7.718 83.645,56.711 83.645,148.906 v 85.494 l -167.29,-0.006 v -85.494 c 0,-92.197 71.407,-141.182 83.645,-148.9"
           style="fill:#231f20;fill-opacity:1;fill-rule:nonzero;stroke:none"
           id="path22" /><path
           d="m 196.162,350.88 c 0,0 7.447,-7.793 28.402,-20.003 2.704,-1.575 5.179,-5.396 0.919,-7.202 l -11.743,-4.46 c 0,0 -1.175,1.648 -7.305,6.536 -6.131,4.888 -10.273,5.622 -10.273,14.116 z"
           style="fill:#fff200;fill-opacity:1;fill-rule:nonzero;stroke:none"
           id="path24" /><path
           d="m 229.637,303.493 v 19.367 c 0,0 -11.445,-4.009 -20.561,-8.545 -2.398,-1.192 -2.187,-4.611 0.057,-5.477 2.244,-0.865 12.575,-4.099 20.504,-5.345"
           style="fill:#fff200;fill-opacity:1;fill-rule:nonzero;stroke:none"
           id="path26" /><path
           d="m 399.114,350.88 c 0,0 -7.448,-7.793 -28.402,-20.003 -2.702,-1.575 -5.179,-5.396 -0.919,-7.202 l 11.743,-4.46 c 0,0 1.176,1.648 7.307,6.536 6.13,4.888 10.271,5.622 10.271,14.116 z"
           style="fill:#fff200;fill-opacity:1;fill-rule:nonzero;stroke:none"
           id="path28" /><path
           d="m 365.64,303.493 v 19.367 c 0,0 11.445,-4.009 20.56,-8.545 2.399,-1.192 2.188,-4.611 -0.056,-5.477 -2.245,-0.865 -12.576,-4.099 -20.504,-5.345"
           style="fill:#fff200;fill-opacity:1;fill-rule:nonzero;stroke:none"
           id="path30" /><path
           d="m 297.638,242.77 c 34.156,34.155 59.696,36.341 88.857,42.072 1.634,0.321 2.649,1.98 2.649,3.651 v 18.899 c -12.244,-7.247 -60.163,-6.219 -91.506,-38.728 -31.343,32.509 -79.262,31.481 -91.505,38.728 v -18.899 c 0,-1.671 1.013,-3.33 2.648,-3.651 29.161,-5.731 54.701,-7.917 88.857,-42.072"
           style="fill:#fff200;fill-opacity:1;fill-rule:nonzero;stroke:none"
           id="path32" /><path
           d="m 219.818,297.644 c 0.043,0.256 0.118,0.49 0.46,0.434 0.172,-0.029 0.415,-0.052 0.775,-0.111 1.218,-0.202 2.948,-0.825 2.609,-2.866 -0.34,-2.042 -2.387,-1.737 -2.867,-1.658 l -1.632,0.253 z m -3.259,1.387 c 1.395,-0.302 1.601,-0.548 1.39,-1.817 l -1.266,-7.617 c -0.203,-1.218 -0.457,-1.476 -1.904,-1.271 l -0.054,-0.326 5.73,-0.952 c 3.808,-0.633 4.545,1.678 4.653,2.329 0.299,1.802 -0.936,2.852 -2.377,3.41 l 0.005,0.034 c 0.804,0.06 2.376,0.188 2.693,2.091 0.442,2.659 -2.52,3.399 -4.012,3.647 l -4.804,0.797 z m 2.492,-6.002 c 1.647,-0.274 2.182,-0.452 2.737,-0.72 0.846,-0.422 1.593,-1.128 1.358,-2.536 -0.382,-2.298 -2.483,-2.107 -3.615,-1.919 -0.995,0.166 -1.292,0.285 -1.187,0.919 z"
           style="fill:#231f20;fill-opacity:1;fill-rule:nonzero;stroke:none"
           id="path34" /><path
           d="m 235.65,283.794 -9.133,2.185 0.077,0.322 c 1.098,-0.192 1.524,-0.133 1.835,1.169 l 1.797,7.509 c 0.319,1.337 -0.062,1.536 -1.107,1.875 l 0.077,0.321 8.98,-2.148 -0.528,-2.43 -0.422,0.1 c 0.106,1.567 -0.269,1.942 -2.146,2.392 l -2.284,0.546 c -0.355,0.084 -0.558,0.133 -0.695,-0.442 l -0.899,-3.755 2.605,-0.623 c 1.505,-0.36 1.772,0.006 2.245,1.163 l 0.388,-0.094 -0.938,-3.924 -0.389,0.093 c 0.121,1.402 -0.076,1.699 -1.476,2.052 l -2.596,0.657 -1.004,-4.195 c -0.165,-0.692 -0.17,-0.71 2.35,-1.312 2.114,-0.507 3.081,-0.201 4.234,1.329 l 0.474,-0.113 z"
           style="fill:#231f20;fill-opacity:1;fill-rule:nonzero;stroke:none"
           id="path36" /><path
           d="m 248.13,280.365 c -0.671,0.245 -0.976,0.669 -1.202,1.231 l -2.114,5.265 c 0.899,-0.097 3.182,-0.371 3.874,1.854 0.796,2.557 -1.835,3.759 -3.313,4.219 l -4.583,1.425 -0.099,-0.315 c 1.127,-0.478 1.329,-0.705 0.947,-1.934 l -2.237,-7.189 c -0.387,-1.246 -0.562,-1.574 -1.933,-1.238 l -0.098,-0.316 4.599,-1.431 0.098,0.315 c -1.307,0.479 -1.375,0.847 -1.029,1.959 l 1.018,3.271 0.94,-0.254 2.36,-6.344 2.674,-0.833 z m -4.61,11.817 c 0.15,0.481 0.335,0.55 1.215,0.277 0.681,-0.213 2.841,-0.938 2.153,-3.147 -0.738,-2.375 -3.239,-1.633 -4.639,-1.216 z"
           style="fill:#231f20;fill-opacity:1;fill-rule:nonzero;stroke:none"
           id="path38" /><path
           d="m 259.095,284.386 -0.406,0.157 c 0.241,1.436 -0.229,3.299 -1.93,3.96 -0.81,0.315 -1.832,0.134 -2.223,-0.871 -0.946,-2.431 4.341,-4.86 3.049,-8.183 -0.535,-1.377 -2.243,-2.505 -4.561,-1.602 -1.231,0.477 -1.811,1.339 -2.297,1.527 -0.34,0.132 -0.61,-0.081 -0.711,-0.34 l -0.356,0.14 0.85,3.625 0.373,-0.147 c 0.012,-0.881 0.018,-3.309 2.207,-4.16 1.296,-0.504 2.303,0.168 2.644,1.043 0.359,0.925 0.314,1.576 -1.526,3.896 -1.157,1.439 -1.917,2.555 -1.293,4.16 0.719,1.848 2.546,2.181 4.005,1.614 0.973,-0.378 1.633,-1.269 2.038,-1.427 0.455,-0.176 0.68,0.165 0.782,0.331 l 0.34,-0.132 z"
           style="fill:#231f20;fill-opacity:1;fill-rule:nonzero;stroke:none"
           id="path40" /><path
           d="m 269.177,271.16 c -0.666,0.38 -0.801,0.659 -0.746,2.044 l 0.427,10.777 -0.313,0.152 -6.987,-6.096 c -0.633,-0.544 -1.672,-1.449 -2.222,-1.665 -0.426,-0.161 -0.707,-0.062 -0.965,0.044 l -0.145,-0.298 3.096,-1.507 0.145,0.298 c -0.328,0.16 -1.063,0.518 -0.743,1.174 0.083,0.172 0.236,0.368 0.414,0.534 l 1.609,1.48 4.097,-1.993 -0.09,-1.814 c -0.012,-0.264 -0.059,-0.879 -0.181,-1.13 -0.282,-0.578 -0.805,-0.342 -1.384,-0.06 l -0.145,-0.298 3.989,-1.94 z m -5.853,7.448 3.891,3.426 -0.278,-5.182 z"
           style="fill:#231f20;fill-opacity:1;fill-rule:nonzero;stroke:none"
           id="path42" /><path
           d="m 274.692,267.424 -4.367,2.59 0.169,0.284 c 1.396,-0.747 1.645,-0.43 2.301,0.677 l 4.437,7.478 -0.808,0.48 c -1.645,0.975 -2.217,0.93 -3.513,-0.504 l -0.36,0.213 1.598,2.489 8.436,-5.003 -1.419,-2.597 -0.358,0.213 c 0.661,1.832 0.402,2.349 -1.243,3.324 l -0.808,0.481 -4.533,-7.643 c -0.604,-1.017 -0.593,-1.408 0.637,-2.198 z"
           style="fill:#231f20;fill-opacity:1;fill-rule:nonzero;stroke:none"
           id="path44" /><path
           d="m 293.9,267.377 c -1.15,0.7 -1.543,0.672 -2.648,-0.781 l -2.748,-3.613 c -0.842,-1.108 -2.821,-3.711 -6.406,-0.983 -3.432,2.611 -1.38,5.31 -0.748,6.141 l 3.284,4.318 c 0.779,1.024 0.702,1.324 -0.298,2.192 l 0.2,0.264 3.917,-2.979 -0.2,-0.263 c -1.156,0.748 -1.46,0.695 -2.207,-0.288 l -3.368,-4.43 c -0.674,-0.885 -2.138,-2.809 0.271,-4.641 1.079,-0.821 2.205,-0.978 3.101,-0.632 0.412,0.167 0.898,0.519 1.751,1.638 l 2.842,3.739 c 1.126,1.481 0.973,1.968 0.046,2.761 l 0.2,0.262 3.212,-2.441 z"
           style="fill:#231f20;fill-opacity:1;fill-rule:nonzero;stroke:none"
           id="path46" /><path
           d="m 304.587,255.229 3.901,3.025 c 4.206,3.263 3.201,6.797 1.785,8.625 -2.388,3.078 -5.733,2.882 -9.032,0.323 l -3.71,-2.878 0.203,-0.262 c 1.121,0.739 1.379,0.719 2.168,-0.298 l 4.733,-6.1 c 0.746,-0.963 0.752,-1.31 -0.25,-2.176 z m -3.636,10.077 c -0.213,0.273 -0.415,0.536 0.231,1.036 1.731,1.344 2.79,1.568 3.907,1.489 1.608,-0.116 2.801,-0.975 3.697,-2.128 3.101,-3.998 -0.279,-6.62 -1.159,-7.303 -0.658,-0.51 -0.898,-0.544 -1.261,-0.075 z"
           style="fill:#231f20;fill-opacity:1;fill-rule:nonzero;stroke:none"
           id="path48" /><path
           d="m 323.516,269.038 c -0.672,-0.372 -0.979,-0.344 -2.136,0.421 l -8.999,5.943 -0.292,-0.188 1.599,-9.134 c 0.137,-0.823 0.374,-2.182 0.274,-2.763 -0.084,-0.448 -0.315,-0.637 -0.538,-0.804 l 0.18,-0.278 2.892,1.87 -0.18,0.278 c -0.306,-0.198 -0.992,-0.641 -1.389,-0.029 -0.105,0.161 -0.193,0.394 -0.243,0.631 l -0.432,2.143 3.825,2.475 1.506,-1.017 c 0.22,-0.148 0.721,-0.506 0.872,-0.739 0.35,-0.541 -0.122,-0.867 -0.663,-1.216 l 0.179,-0.277 3.724,2.407 z m -9.404,-1.151 -0.917,5.101 4.291,-2.921 z"
           style="fill:#231f20;fill-opacity:1;fill-rule:nonzero;stroke:none"
           id="path50" /><path
           d="m 329.145,284.342 c -0.912,-0.624 -1.37,-0.946 -0.413,-2.743 l 4.303,-8.072 -0.26,-0.139 -11.236,4.811 -0.029,-0.017 3.189,-5.985 c 0.842,-1.58 1.346,-1.745 2.49,-1.195 l 0.156,-0.291 -3.606,-1.923 -0.157,0.292 c 1.127,0.698 1.326,1.101 0.442,2.757 l -3.607,6.769 c -1.038,0.431 -1.325,0.377 -1.938,0.05 l -0.157,0.29 2.625,1.4 9.813,-4.248 0.03,0.017 -2.733,5.124 c -0.941,1.766 -1.436,1.659 -2.52,1.18 l -0.154,0.291 3.604,1.923 z"
           style="fill:#231f20;fill-opacity:1;fill-rule:nonzero;stroke:none"
           id="path52" /><path
           d="m 342.531,286.619 -0.401,-0.163 c -0.811,1.209 -2.431,2.242 -4.122,1.557 -0.806,-0.327 -1.425,-1.159 -1.02,-2.159 0.979,-2.417 6.492,-0.558 7.832,-3.861 0.556,-1.371 0.087,-3.362 -2.216,-4.297 -1.226,-0.495 -2.239,-0.267 -2.722,-0.465 -0.339,-0.136 -0.388,-0.475 -0.283,-0.734 l -0.355,-0.143 -1.869,3.221 0.37,0.149 c 0.614,-0.632 2.284,-2.394 4.461,-1.512 1.288,0.523 1.562,1.702 1.208,2.572 -0.372,0.918 -0.851,1.362 -3.783,1.789 -1.828,0.252 -3.147,0.543 -3.795,2.14 -0.744,1.837 0.356,3.333 1.808,3.921 0.967,0.391 2.058,0.196 2.46,0.361 0.454,0.183 0.382,0.586 0.343,0.776 l 0.338,0.137 z"
           style="fill:#231f20;fill-opacity:1;fill-rule:nonzero;stroke:none"
           id="path54" /><path
           d="m 355.715,282.566 -8.934,-2.891 -0.101,0.313 c 1.038,0.41 1.369,0.682 0.958,1.955 l -2.379,7.347 c -0.423,1.307 -0.853,1.276 -1.921,1.023 l -0.102,0.314 8.786,2.843 0.815,-2.349 -0.413,-0.135 c -0.726,1.393 -1.241,1.518 -3.078,0.924 l -2.234,-0.722 c -0.346,-0.113 -0.546,-0.177 -0.362,-0.741 l 1.188,-3.672 2.546,0.825 c 1.474,0.476 1.511,0.926 1.313,2.161 l 0.381,0.124 1.242,-3.84 -0.381,-0.124 c -0.628,1.261 -0.95,1.411 -2.329,0.983 l -2.559,-0.79 1.328,-4.103 c 0.22,-0.679 0.225,-0.696 2.691,0.102 2.069,0.669 2.733,1.433 2.923,3.339 l 0.462,0.152 z"
           style="fill:#231f20;fill-opacity:1;fill-rule:nonzero;stroke:none"
           id="path56" /><path
           d="m 363.938,284.598 -4.939,-1.179 -0.075,0.322 c 1.522,0.434 1.48,0.835 1.181,2.087 l -2.019,8.457 -0.914,-0.218 c -1.859,-0.443 -2.239,-0.873 -2.171,-2.806 l -0.405,-0.097 -0.585,2.9 9.54,2.277 0.787,-2.853 -0.406,-0.096 c -0.8,1.777 -1.346,1.967 -3.206,1.524 l -0.914,-0.218 2.063,-8.644 c 0.273,-1.151 0.555,-1.423 1.987,-1.134 z"
           style="fill:#231f20;fill-opacity:1;fill-rule:nonzero;stroke:none"
           id="path58" /><path
           d="m 366.538,285.472 c 1.449,0.287 1.605,0.613 1.396,1.831 l -1.322,7.607 c -0.219,1.267 -0.494,1.433 -1.929,1.254 l -0.057,0.324 5.089,0.884 0.058,-0.327 c -1.244,-0.269 -1.65,-0.461 -1.412,-1.833 l 1.319,-7.607 c 0.232,-1.336 0.673,-1.437 1.947,-1.251 l 0.057,-0.325 -5.089,-0.883 z"
           style="fill:#231f20;fill-opacity:1;fill-rule:nonzero;stroke:none"
           id="path60" /><path
           d="m 383.775,287.704 c -0.766,-0.025 -1.028,0.141 -1.708,1.349 l -5.293,9.397 -0.345,-0.035 -2.749,-8.855 c -0.252,-0.794 -0.662,-2.112 -1.017,-2.583 -0.279,-0.363 -0.57,-0.425 -0.845,-0.47 l 0.033,-0.328 3.427,0.342 -0.034,0.329 c -0.363,-0.037 -1.176,-0.118 -1.249,0.609 -0.018,0.189 0.009,0.437 0.073,0.671 l 0.593,2.104 4.532,0.454 0.876,-1.59 c 0.128,-0.233 0.411,-0.78 0.439,-1.057 0.064,-0.641 -0.505,-0.716 -1.146,-0.778 l 0.034,-0.329 4.413,0.44 z m -8.892,3.269 1.514,4.957 2.484,-4.557 z"
           style="fill:#231f20;fill-opacity:1;fill-rule:nonzero;stroke:none"
           id="path62" /><path
           d="m 376.194,428.385 c 0,-85.638 -68.747,-133.887 -78.554,-140.342 -9.808,6.455 -78.498,54.704 -78.498,140.342 l 0.094,82.774 h 156.958 z"
           style="fill:#ffffff;fill-opacity:1;fill-rule:nonzero;stroke:none"
           id="path64" /><path
           d="M 219.24,511.159 H 376.194 V 434.136 H 219.148 Z"
           style="fill:#fff200;fill-opacity:1;fill-rule:nonzero;stroke:none"
           id="path66" /><path
           d="M 381.806,461.217 H 219.179 v -3.945 h 162.627 z"
           style="fill:#ffffff;fill-opacity:1;fill-rule:nonzero;stroke:none"
           id="path68" /><path
           d="M 219.179,461.217 H 381.806"
           style="fill:none;stroke:#231f20;stroke-width:1.972;stroke-linecap:butt;stroke-linejoin:miter;stroke-miterlimit:4;stroke-dasharray:none;stroke-opacity:1"
           id="path70" /><path
           d="M 219.179,457.272 H 381.806"
           style="fill:none;stroke:#231f20;stroke-width:0.986;stroke-linecap:butt;stroke-linejoin:miter;stroke-miterlimit:4;stroke-dasharray:none;stroke-opacity:1"
           id="path72" /><path
           d="m 265.936,502.143 h -5.425 V 433.39 h 5.425 z"
           style="fill:#ffffff;fill-opacity:1;fill-rule:nonzero;stroke:none"
           id="path74" /><path
           d="m 265.936,433.39 v 68.753 h -5.425 V 433.39 Z"
           style="fill:none;stroke:#231f20;stroke-width:1.506;stroke-linecap:butt;stroke-linejoin:miter;stroke-miterlimit:4;stroke-dasharray:none;stroke-opacity:1"
           id="path76" /><path
           d="m 260.511,468.784 -7.573,-7.576"
           style="fill:none;stroke:#231f20;stroke-width:1.817;stroke-linecap:butt;stroke-linejoin:miter;stroke-miterlimit:4;stroke-dasharray:none;stroke-opacity:1"
           id="path78" /><path
           d="M 260.511,493.104 228.659,461.252"
           style="fill:none;stroke:#231f20;stroke-width:1.817;stroke-linecap:butt;stroke-linejoin:miter;stroke-miterlimit:4;stroke-dasharray:none;stroke-opacity:1"
           id="path80" /><path
           d="M 260.673,485.051 236.866,461.245"
           style="fill:none;stroke:#231f20;stroke-width:1.817;stroke-linecap:butt;stroke-linejoin:miter;stroke-miterlimit:4;stroke-dasharray:none;stroke-opacity:1"
           id="path82" /><path
           d="M 260.511,476.668 245.317,461.474"
           style="fill:none;stroke:#231f20;stroke-width:1.817;stroke-linecap:butt;stroke-linejoin:miter;stroke-miterlimit:4;stroke-dasharray:none;stroke-opacity:1"
           id="path84" /><path
           d="m 265.773,468.784 7.566,-7.576"
           style="fill:none;stroke:#231f20;stroke-width:1.817;stroke-linecap:butt;stroke-linejoin:miter;stroke-miterlimit:4;stroke-dasharray:none;stroke-opacity:1"
           id="path86" /><path
           d="M 265.773,493.104 297.62,461.252"
           style="fill:none;stroke:#231f20;stroke-width:1.817;stroke-linecap:butt;stroke-linejoin:miter;stroke-miterlimit:4;stroke-dasharray:none;stroke-opacity:1"
           id="path88" /><path
           d="m 265.612,485.051 23.806,-23.806"
           style="fill:none;stroke:#231f20;stroke-width:1.817;stroke-linecap:butt;stroke-linejoin:miter;stroke-miterlimit:4;stroke-dasharray:none;stroke-opacity:1"
           id="path90" /><path
           d="M 265.773,476.668 280.96,461.474"
           style="fill:none;stroke:#231f20;stroke-width:1.817;stroke-linecap:butt;stroke-linejoin:miter;stroke-miterlimit:4;stroke-dasharray:none;stroke-opacity:1"
           id="path92" /><path
           d="m 334.896,502.143 h -5.423 V 433.39 h 5.423 z"
           style="fill:#ffffff;fill-opacity:1;fill-rule:nonzero;stroke:none"
           id="path94" /><path
           d="m 334.896,433.39 v 68.753 h -5.422 V 433.39 Z"
           style="fill:none;stroke:#231f20;stroke-width:1.506;stroke-linecap:butt;stroke-linejoin:miter;stroke-miterlimit:4;stroke-dasharray:none;stroke-opacity:1"
           id="path96" /><path
           d="M 329.474,468.784 321.9,461.208"
           style="fill:none;stroke:#231f20;stroke-width:1.817;stroke-linecap:butt;stroke-linejoin:miter;stroke-miterlimit:4;stroke-dasharray:none;stroke-opacity:1"
           id="path98" /><path
           d="M 329.474,493.104 297.62,461.252"
           style="fill:none;stroke:#231f20;stroke-width:1.817;stroke-linecap:butt;stroke-linejoin:miter;stroke-miterlimit:4;stroke-dasharray:none;stroke-opacity:1"
           id="path100" /><path
           d="M 329.636,485.051 305.829,461.245"
           style="fill:none;stroke:#231f20;stroke-width:1.817;stroke-linecap:butt;stroke-linejoin:miter;stroke-miterlimit:4;stroke-dasharray:none;stroke-opacity:1"
           id="path102" /><path
           d="M 329.474,476.668 314.279,461.474"
           style="fill:none;stroke:#231f20;stroke-width:1.817;stroke-linecap:butt;stroke-linejoin:miter;stroke-miterlimit:4;stroke-dasharray:none;stroke-opacity:1"
           id="path104" /><path
           d="m 334.736,468.784 7.565,-7.576"
           style="fill:none;stroke:#231f20;stroke-width:1.817;stroke-linecap:butt;stroke-linejoin:miter;stroke-miterlimit:4;stroke-dasharray:none;stroke-opacity:1"
           id="path106" /><path
           d="m 334.736,493.104 31.845,-31.852"
           style="fill:none;stroke:#231f20;stroke-width:1.817;stroke-linecap:butt;stroke-linejoin:miter;stroke-miterlimit:4;stroke-dasharray:none;stroke-opacity:1"
           id="path108" /><path
           d="M 334.573,485.051 358.38,461.245"
           style="fill:none;stroke:#231f20;stroke-width:1.817;stroke-linecap:butt;stroke-linejoin:miter;stroke-miterlimit:4;stroke-dasharray:none;stroke-opacity:1"
           id="path110" /><path
           d="m 334.736,476.668 15.186,-15.194"
           style="fill:none;stroke:#231f20;stroke-width:1.817;stroke-linecap:butt;stroke-linejoin:miter;stroke-miterlimit:4;stroke-dasharray:none;stroke-opacity:1"
           id="path112" /><path
           d="m 329.364,530.04 c 0,0 18.276,-7.9 21.376,-0.083 0,0 2.317,4.459 -5.782,8.735 0,0 -0.681,0.587 -0.561,1.897 0,0 0.199,1.234 -1.279,1.167 l -0.284,1.446 c 0,0 -0.073,0.738 -0.546,0.267 0,0 -0.987,-1.005 -1.894,-0.832 l -0.199,1.991 c 0,0 -0.094,0.452 -0.908,0.264 0,0 -1.445,-0.375 -1.808,-0.378 0,0 -0.465,1.354 -0.202,2.352 0,0 0.53,1.545 -1.365,0.713 l -1.982,-1.104 -0.746,2.348 c 0,0 -0.096,0.542 -0.727,0.265 l -1.805,-0.831 -0.026,3.17 c 0,0 0.048,0.773 -0.818,0.355 0,0 -2.036,-0.92 -2.357,0.07 0,0 -0.395,2.502 -1.382,2.614 l -2.523,-1.381 -0.654,2.168 -2.347,-0.836 -1.567,3.157 c 0,0 -0.279,0.722 -0.999,0.081 l -2.875,-2.652 c 0,0 -1.218,0.792 -1.649,2.341 0,0 -0.223,0.879 -1.18,0.17 l -2.52,-1.743 c 0,0 -0.54,-0.276 -0.817,0.265 l -0.278,0.54 -0.553,1.083 c 0,0 -0.307,0.565 -0.907,0.173 0,0 -2.429,-1.743 -3.149,-2.383 0,0 -0.579,-0.532 -1.179,0.171 0,0 -2.018,2.928 -2.375,2.424 l -1.701,-2.189 c 0,0 -0.805,-1.274 -0.819,0.356 l -1.06,50.78 c 0,0 0.719,3.267 4.788,-1.113 0,0 -1.437,-1.371 -1.6,-3.546 0,0 -0.164,-1.904 -0.521,-2.45 0,0 -0.534,-1.092 0.195,-1.629 0,0 0.277,-0.542 0.009,-0.996 0,0 -0.526,-1.907 0.836,-2.257 0,0 1.36,-0.35 1.823,-1.433 0,0 0.645,-1.353 1.913,-1.342 0,0 1.36,-0.079 1.906,-0.436 0,0 1.997,-0.345 2.076,0.924 0,0 0.332,2.199 1.41,4.36 0,0 3.022,8.679 -6.697,9.723 0,0 -0.735,1.262 -2.928,3.415 l -2.103,2.156 c 0,0 0.782,13.955 0.679,15.494 0,0 -0.728,0.357 -1.091,0.444 l 0.343,2.176 c 0,0 0.172,0.998 -0.917,1.261 0,0 -0.541,6.197 6.619,5.536 0,0 4.02,-0.262 4.004,-8.523 0,0 1.362,-0.531 1.793,2.009 0,0 0.619,1.726 1.174,0.373 0,0 0.658,-2.712 -0.328,-3.807 0,0 -1.167,-1.188 0.462,-0.902 0,0 0.277,-0.812 0.637,-0.537 l 0.36,0.274 1.802,1.193 c 0,0 1.752,-3.517 -2.713,-10.802 0,0 -0.897,-1.216 0.367,-0.54 l 3.602,2.387 c 0,0 0.905,0.189 1.187,-0.986 0,0 0.194,-1.538 0.829,-1.623 0,0 0.171,-0.013 0.083,0.726 0,0 -0.306,3.801 1.332,3 0,0 0.046,-1.904 1.646,-1.706 0,0 0.443,1.271 -1.043,5.334 0,0 -0.372,0.994 0.533,1.182 0,0 1.357,0.284 1.444,0.648 0,0 0.109,0.19 -0.729,0.445 0,0 -2.818,1.062 -1.65,2.16 0,0 1.212,0.401 2.261,0.473 0,0 2.311,0.494 2.612,1.653 0,0 0.268,0.546 -0.636,0.356 0,0 -1.228,-0.07 -2.904,0.428 0,0 -1.088,0.172 -1.994,0.254 0,0 0.348,1.633 1.613,1.917 0,0 2.169,0.471 2.071,1.467 l -4.077,0.055 c 0,0 -0.186,0.542 1.165,1.459 0,0 2.704,1.383 1.339,2.095 0,0 -1.623,-0.92 -4.795,-0.586 0,0 -0.297,2.987 0.235,4.169 0,0 0.332,0.791 -0.275,0.359 0,0 -1.35,-1.008 -2.349,-0.654 0,0 -0.103,1.448 0.796,2.18 0,0 0.258,0.619 -0.366,0.541 0,0 -1.801,-1.284 -2.62,-0.929 0,0 -0.454,0.086 0.084,0.725 0,0 0.807,1.003 0.084,0.816 0,0 -1.807,-0.559 -2.702,-1.744 0,0 -0.448,-0.548 -0.814,-0.008 0,0 -0.369,0.722 -0.634,-0.005 0,0 -0.424,-3.355 -7.223,-2.6 0,0 5.835,5.849 14.266,5.017 0,0 3.266,-0.697 4.939,-5.482 0,0 1.164,1.46 0.976,2.273 0,0 -0.381,2.08 0.714,1.093 0,0 1.55,-0.891 3.473,-3.501 0,0 0.726,-0.084 0.447,0.729 0,0 -0.659,2.982 -1.578,4.424 0,0 -0.099,0.904 1.616,1.553 0,0 1.086,0.192 0.175,0.727 0,0 -2.26,-0.383 -2.358,0.341 0,0 -0.097,0.815 0.712,1.456 0,0 1.26,0.826 0.98,1.82 0,0 -0.72,-0.46 -2.078,-0.562 l -1.358,-0.103 -1.54,-0.013 c 0,0 0.985,1.367 0.795,2.271 l -3.431,-1.298 c 0,0 -1.172,-0.555 -0.824,0.989 l 0.425,3.264 c 0,0 -2.689,-3.193 -4.14,-2.935 0,0 -0.639,0.537 0.698,2.905 0,0 -0.249,0.269 -0.632,-0.097 0,0 -2.605,-2.468 -3.514,-2.204 0,0 -0.008,0.906 0.611,2.541 0,0 0.683,1.226 0.006,0.864 -0.134,-0.071 -0.284,-0.141 -0.284,-0.141 0,0 -3.206,-1.387 -5.56,-6.209 0,0 -1.774,-4.091 -4.83,-6.745 0,0 -0.303,3.53 3.011,7.726 l 4.393,5.02 c 0,0 4.152,3.8 7.883,-0.292 0,0 -0.078,2.796 1.427,2.457 0,0 2.635,-0.973 3.811,-0.781 0,0 -0.716,3.153 -2.114,3.514 l -1.181,0.352 c 0,0 -1.091,0.533 -0.281,1.084 0,0 2.065,2.011 0.979,1.82 0,0 -1.529,-1.009 -2.167,-0.743 0,0 -0.908,0.354 -1.628,-0.287 0,0 -0.9,-0.551 -1.355,-0.284 0,0 -0.229,1.476 0.34,2.449 0,0 0.341,0.842 -0.456,0.54 0,0 -1.446,-0.557 -2.883,-1.837 0,0 -0.988,-0.915 -0.907,0.082 0,0 0.342,2.267 -0.195,1.629 l -2.598,-3.284 c 0,0 -0.807,-1.094 -0.906,0.082 l 0.165,1.814 c 0,0 -3.241,-2.204 -4.295,-5.926 0,0 -0.064,-2.899 -0.698,-2.904 0,0 -0.548,0.447 -0.123,3.712 0,0 1.911,9.256 -1.83,12.303 0,0 -1.063,0.332 -1.257,-1.28 0,0 -0.724,-5.079 -0.795,-7.434 0,0 -0.471,-3.084 0.308,-9.236 0,0 0.794,-7.783 -0.261,-11.415 0,0 -2.097,1.522 -1.961,6.685 0,0 0.473,7.975 -1.09,10.588 0,0 -0.549,0.539 -0.538,-0.639 0,0 0.112,-2.444 -0.522,-2.45 0,0 -0.551,0.81 -0.472,2.17 l 0.079,1.36 c 0,0 0.24,1.823 -0.549,0.628 0,0 -0.897,-1.004 -1.001,0.535 l -0.113,2.535 c 0,0 -0.188,0.813 -0.634,-0.005 0,0 -0.883,-2.635 -1.523,-1.916 0,0 -1.023,2.98 -3.032,4.864 0,0 -0.543,-0.095 -0.355,-0.819 0,0 1.117,-3.431 -0.429,-2.72 0,0 -2.728,1.243 -3.558,2.867 0,0 -0.821,0.808 -0.723,-0.188 0,0 0.927,-1.649 0.197,-1.719 0,0 -1.259,-0.231 -2,0.798 0,0 -1.003,0.806 -0.813,-0.28 0,0 0.839,-2.618 0.295,-2.623 0,0 -1.176,-0.101 -2.086,0.343 0,0 -2.062,0.837 -1.902,0.074 0.094,-0.451 0.367,-0.63 0.917,-1.35 0,0 1.005,-0.988 0.011,-1.268 0,0 -2.438,-0.837 -4.569,-5.747 0,0 -0.299,-1.097 1.088,-0.081 0,0 7.811,7.859 15.68,-1.129 l -0.987,-1.096 -3.837,3.68 c 0,0 -0.808,-0.822 0.386,-2.623 0,0 0.953,-1.253 0.203,-2.444 0,0 -6.094,6.383 -6.3,5.741 0,0 -0.719,-0.641 0.84,-2.891 0,0 0.391,-1.718 -0.347,-1.723 0,0 -2.767,0.215 -4.976,0.483 0,0 -0.946,0.076 -1.506,0.304 0,0 -0.468,-0.796 0.883,-1.417 0,0 4.057,-2.102 1.368,-2.443 0,0 -2.135,-0.336 -4.684,1.384 0,0 -0.618,-1.747 1.935,-3.862 0,0 0.717,-0.47 0.088,-1.03 0,0 -1.809,-1.361 -2.262,-3.819 0,0 -0.221,-1.902 -0.767,-2.858 0,0 1.19,-0.305 2.444,1.209 l 1.021,0.96 c 0,0 0.631,0.243 0.797,-0.705 0,0 0.032,-3.563 0.824,-3.557 0,0 0.336,-0.08 0.625,0.956 0,0 2.283,9.189 9.191,8.236 0,0 5.07,-0.43 9.78,-4.822 0,0 -0.233,-0.397 -1.817,-0.412 0,0 -2.082,2.674 -7.398,3.973 0,0 -1.27,0.305 -0.391,-0.558 0,0 2.152,-1.644 1.365,-2.125 0,0 -3.65,0.838 -5.942,0.422 0,0 -0.234,-0.398 0.402,-0.709 0,0 2.385,-1.087 1.122,-1.495 0,0 -3.328,0.208 -5.293,-1.392 0,0 0.64,-0.786 2.147,-1.089 0,0 -3.153,-1.532 -4.326,-3.206 0,0 -0.233,-0.477 0.559,-0.469 0,0 3.955,0.351 3.012,-0.449 0,0 -3.468,-1.773 -5.246,-6.697 0,0 -0.071,-0.793 0.716,-0.311 0,0 2.519,1.685 2.528,0.656 0,0 -0.26,-6.415 0.457,-6.963 0,0 0.484,-1.026 2.274,2.554 0,0 0.996,2.547 2.368,0.733 l 1.841,-2.201 c 0,0 0.802,-1.259 1.029,0.01 0,0 0.536,2.063 0.357,4.357 0,0 0.179,0.671 0.553,0.164 0,0 0.053,-1.819 0.959,-1.021 l -0.008,0.949 c 0,0 2.132,0.652 2.145,-0.851 l 0.013,-1.505 c 0,0 -0.395,-1.456 0.259,-2.452 l 0.012,-1.266 c 0,0 -0.07,-1.031 0.477,-0.234 l 0.547,0.796 0.781,1.195 c 0,0 0.469,0.717 0.869,0.166 0,0 1.849,-3.071 4.938,-3.281 l 0.274,4.832 c 0,0 1.03,0.089 0.376,2.299 0,0 -0.325,0.948 0.227,1.269 0,0 0.356,0.332 -0.007,0.791 0,0 -0.487,1.342 0.459,1.825 0,0 0.231,0.435 -0.169,1.107 0,0 -0.832,4.586 0.586,5.389 0,0 0.789,0.324 0.795,-0.388 l 0.007,-0.713 c 0,0 -0.972,-21.964 -0.591,-34.369 l 0.574,-44.467 c 0,0 -0.612,-2.361 -2.808,0.066 0,0 -1.01,1.531 -1.906,0.436 0,0 -0.443,-1.091 -0.901,-0.551 l -1.552,1.344 -0.627,-0.729 c 0,0 -0.347,-0.598 -1,0.443 0,0 -0.475,0.741 -1.089,0.171 l -1.438,-1.28 c 0,0 -2.47,2.876 -3.56,3.139 l -2.414,-3.554 c 0,0 -0.622,-1.274 -1.174,-0.373 0,0 -0.679,1.008 -1.179,0.172 -0.191,-0.322 -0.267,-0.456 -0.267,-0.456 0,0 -0.201,-0.474 -0.723,-0.278 0,0 -0.767,0.836 -1.219,-0.134 -0.346,-0.74 -0.403,-0.878 -0.403,-0.878 l -0.796,-1.999 c 0,0 -0.535,-1.091 -1.267,-0.192 0,0 -1.371,1.437 -1.539,-0.103 l -0.171,-1.181 c 0,0 -0.172,-0.997 -0.992,-0.461 0,0 -0.867,0.819 -1.269,0.079 l -0.891,-1.637 c 0,0 -0.628,-0.731 -1.085,-0.282 l -0.456,0.449 c 0,0 -0.768,1.001 -1.086,-0.009 -0.232,-0.731 -0.353,-1.091 -0.353,-1.091 0,0 -0.195,-1.111 -1.173,-0.554 l -1.183,0.624 -0.531,-1.454 c 0,0 -0.24,-0.919 -1.085,-0.191 0,0 -0.914,0.898 -1.266,-0.192 l -0.353,-1.09 c 0,0 -0.35,-1.361 -0.989,-0.733 0,0 -1.146,1.484 -1.54,-0.105 l -0.351,-1.271 -1.812,0.166 c 0,0 -1.451,0.168 -0.443,-1.182 l 1.008,-1.349 c 0,0 0.325,-0.903 -0.622,-1.365 0,0 -12.211,-5.734 -3.25,-11.441 0,0 1.36,-1.369 8.697,-0.195 5.881,0.942 5.878,0.958 5.878,0.958 0,0 7.597,1.336 8.952,1.8 l 1.168,1.097 c 0,0 3.085,-0.618 6.239,-0.114 0,0 5.427,0.795 8.338,0.696 0,0 2.071,1.377 6.148,1.232 0,0 4.08,-0.417 6.156,0.326 0,0 4.997,-1.768 9.146,0.171 0,0 11.89,-2.793 21.028,-1.807"
           style="fill:#231f20;fill-opacity:1;fill-rule:nonzero;stroke:none"
           id="path114" /><path
           d="m 340.77,541.191 0.628,0.458 c 0,0 0.633,0.187 0.73,-0.536 0,0 0.007,-0.725 -0.72,-0.55 0,0 -0.997,0.173 -0.638,0.628 z"
           style="fill:none;stroke:#231f20;stroke-width:0.054;stroke-linecap:butt;stroke-linejoin:miter;stroke-miterlimit:4;stroke-dasharray:none;stroke-opacity:1"
           id="path116" /><path
           d="m 259.888,538.598 c -12.18,-1.603 -13.929,-7.392 -13.929,-7.392 -1.165,-6.532 10.092,-4.327 10.092,-4.327 1.899,0.357 6.172,1.209 6.172,1.209 1.357,0.08 2.509,0.363 2.509,0.363 0.61,0.208 4.002,0.714 4.002,0.714 5.562,0.864 3.485,5.397 3.485,5.397 -2.766,5.546 -12.331,4.036 -12.331,4.036 m 66.483,2.217 c 4.518,-3.832 2.921,-7.719 2.921,-7.719 -0.531,-1.295 0.424,-1.762 0.424,-1.762 3.888,-1.799 7.767,-2.648 7.767,-2.648 11.979,-2.544 11.937,2.21 11.937,2.21 0.993,6.769 -11.833,9.135 -11.833,9.135 -2.652,0.282 -5.034,0.907 -5.034,0.907 -2.726,0.858 -5.983,0.422 -5.983,0.422 -0.577,-0.073 -0.199,-0.545 -0.199,-0.545 m -36.356,1.649 c 0,0 10.388,4.439 17.917,-2.05 0,0 4.491,-4.749 -1.256,-7.721 0,0 -2.029,-1.172 -7.065,0.006 0,0 -1.292,0.226 -3.463,-0.167 0,0 -2.303,-0.699 -4.758,0.365 0,0 2.535,5.186 -1.639,8.613 0,0 -0.616,0.607 0.264,0.954"
           style="fill:#00adef;fill-opacity:1;fill-rule:nonzero;stroke:none"
           id="path118" /><path
           d="m 307.886,541.67 c 3.626,-2.956 1.628,-7.321 1.628,-7.321 -0.469,-0.82 0.212,-0.95 0.212,-0.95 8.077,-3.121 16.492,-1.994 16.492,-1.994 4.675,1.23 2.086,5.963 2.086,5.963 -5.447,9.054 -19.811,4.851 -19.811,4.851 -0.813,-0.177 -0.607,-0.549 -0.607,-0.549 m -37.944,-3.188 c 0,0 5.527,5.008 16.34,3.609 0,0 4.828,-0.501 5.211,-5.525 0,0 0.66,-5.53 -9.189,-5.583 0,0 -3.872,0.102 -6.108,-0.597 0,0 -0.543,-0.14 -1.292,0.057 0,0 -0.819,0.536 -1.565,0.393 0,0 1.182,4.495 -3.597,7.305 0,0 -0.069,0.135 0.2,0.341"
           style="fill:#ffffff;fill-opacity:1;fill-rule:nonzero;stroke:none"
           id="path120" /><path
           d="m 276.551,659.39 c 0,0 -0.759,1.283 -2.454,0.928 0,0 -0.27,-0.206 0.004,-0.475 0,0 0.611,-0.577 1.84,-0.662 0,0 0.786,-0.056 0.61,0.209 m 3.81,-0.714 c 0,0 0.104,3.601 -3.225,3.639 0,0 -0.269,-0.205 0.008,-0.815 0,0 0.976,-2.844 2.744,-3.101 0,0 0.419,-0.111 0.473,0.277 m 2.181,-0.864 c 0,0 0.582,3.401 -1.873,4.466 0,0 -0.683,0.403 -0.405,-0.207 0,0 0.483,-0.879 0.421,-1.558 0,0 0.636,-2.848 1.857,-2.701 m 1.981,-1.206 c 0,0 1.821,1.58 0.505,4.353 l -0.694,1.691 c 0,0 -0.551,0.811 -0.744,-0.346 0,0 -0.227,-1.383 -0.25,-2.515 0,0 0.019,-2.856 1.183,-3.183 m 1.231,-0.939 1.029,-1.146 c 0,0 0.483,-0.743 0.669,1.161 0,0 0.72,3.131 -0.175,4.413 0,0 -1.212,-1.233 -1.267,-2.66 0,0 0.011,-1.155 -0.256,-1.768 m 2.25,-0.932 c -0.6,-1.363 0.084,-1.901 0.084,-1.901 0.413,-0.472 1.168,-1.416 1.168,-1.416 0.886,-0.264 0.249,2.583 0.249,2.583 -0.349,1.016 -0.428,2.306 -0.428,2.306 -0.21,0.745 -1.073,-1.572 -1.073,-1.572 m 3.454,-6.49 c 0,0 0.584,3.061 -0.179,4.821 0,0 -0.277,0.609 -0.606,-0.617 0,0 -0.797,-1.977 0.31,-4.276 0,0 0.281,-1.017 0.475,0.072 m -19.513,9.541 c -1.216,-0.69 -0.262,-1.021 -0.262,-1.021 l 2.23,1.31 c -0.477,0.2 -1.968,-0.289 -1.968,-0.289 m 13.99,-7.145 0.89,-0.875 c 0.891,-0.875 0.886,-0.332 0.886,-0.332 l -2.125,2.223 c -0.404,-0.411 0.349,-1.016 0.349,-1.016 m 3.474,-1.124 c 0,0 -3.804,7.643 -11.215,8.46 0,0 -0.543,-0.073 0.614,-0.334 0,0 5.99,-1.442 10.125,-7.995 0,0 0.346,-0.812 0.476,-0.131 m -3.274,-13.818 1.812,2.392 c 0,0 0.674,0.618 -1.022,0.399 0,0 -2.196,2.563 -3.692,2.685 0,0 -0.133,-0.341 0.144,-0.949 0,0 0.768,-2.372 0.362,-2.579 l -0.406,-0.207 c 0,0 -2.534,2.491 -4.368,2.407 0,0 0.419,-1.287 1.924,-2.429 0,0 1.3,-1.143 0.626,-1.692 0,0 -0.337,-0.344 -1.226,0.396 0,0 -1.987,1.884 -4.974,1.654 0,0 3.411,-1.6 4.169,-2.884 0,0 0.28,-0.88 -0.606,-0.617 0,0 -4.638,2.133 -6.388,0.284 0,0 3.949,-0.984 4.644,-2.745 0,0 0.006,-0.679 -1.286,-0.555 0,0 -4.628,0.979 -6.218,-3.587 0,0 -0.181,-0.671 0.546,-0.269 l 0.677,0.28 c 0,0 1.134,0.19 1.963,0.765 0,0 1.353,0.623 1.495,0.013 0,0 0.084,-0.389 -0.335,-0.546 0,0 -2.158,-0.893 -2.145,-3.348 l 0.021,-2.31 c 0,0 0.211,-0.881 0.681,-0.197 0,0 2.215,3.008 2.267,4.774 l -0.007,0.748 c 0,0 0.814,0.211 0.752,-0.469 l -0.056,-1.291 c 0,0 -0.054,-1.511 2.066,-3.175 0,0 0.686,-0.741 0.609,0.21 l -0.076,0.951 c 0,0 -0.259,2.044 -0.978,2.979 0,0 -0.703,2.711 0.517,2.994 0,0 1.175,-2.299 2.332,-2.561 0,0 0.886,-0.263 -0.315,4.957 0,0 -0.147,1.356 0.259,1.428 0,0 0.743,0.482 0.959,-0.942 0,0 -0.052,-1.767 1.177,-2.368 0,0 1.081,0.622 1.06,2.931 0,0 0.176,3.194 1.662,4.09 0,0 0.677,0.414 0.749,-0.128 0,0 0.088,-2.242 0.625,-1.489 m -1.973,-7.423 c 1.761,0.559 1.138,1.912 1.138,1.912 -1.357,-0.216 -1.138,-1.912 -1.138,-1.912 m -2.709,-0.907 0.086,-1.969 c 0,0 1.277,1.437 -0.086,1.969 m 2.9,-5.273 c 0.666,1.501 1.48,1.643 1.48,1.643 0.109,2.923 -0.842,2.982 -0.842,2.982 -1.273,-2.049 -0.638,-4.625 -0.638,-4.625 m -0.282,8.761 c 0.603,1.024 0.254,2.04 0.254,2.04 -0.871,-1.367 -0.254,-2.04 -0.254,-2.04 m 5.313,6.092 c 0,0 -0.476,0.132 -0.945,-0.687 l -0.201,-0.273 c 0,0 1.013,0.552 1.146,0.96 m -18.774,2.823 c 0,0 3.747,6.488 6.873,6.311 0,0 2.239,0.292 6.533,-1.301 0,0 0.341,-0.2 0.262,1.157 0,0 0.44,3.944 -2.223,5.619 0,0 0.573,-3.459 -1.791,-4.975 0,0 -1.081,-0.621 -1.025,0.671 l 0.123,1.427 c 0,0 0.209,1.27 -2.338,3.308 0,0 -0.435,0.344 -0.475,-0.139 0,0 -0.255,-1.905 0.435,-3.054 0,0 1.073,-1.721 0.016,-1.835 0,0 -0.473,-0.343 -1.234,1.348 0,0 -0.908,2.778 -4.163,2.07 0,0 -0.483,-0.206 0.278,-0.677 0,0 0.866,-0.482 1.1,-1.485 0,0 0.419,-1.361 1.915,-1.546 0,0 0.752,-0.536 0.004,-0.407 0,0 -3.133,0.991 -6.186,0.557 0,0 -0.611,-0.074 0.002,-0.272 l 0.613,-0.198 1.501,-0.666 c 0,0 -4.256,-2.755 -3.69,-5.263 0,0 0.544,-0.064 1.217,0.621 l 0.673,0.686 2.831,2.538 0.207,-0.338 c 0,0 -2.218,-2.668 -1.729,-4.227 z m 18.184,2.403 c 0,0 0.571,4.624 -2.504,6.636 0,0 -0.134,-0.206 0.21,-0.746 0,0 1.376,-1.958 1.258,-3.861 0,0 -0.468,-0.888 -0.812,-0.415 0,0 0.109,3.058 -1.392,3.792 0,0 -0.815,-0.007 -0.382,-2.924 0,0 0.095,-0.36 0.549,-0.607 0.829,-0.45 0.819,-0.468 0.819,-0.468 z m 1.026,-0.738 2.188,-1.611 c 0,0 -0.011,1.222 -1.93,3.175 0,0 -0.411,0.337 -0.267,-0.478 0,0 0.277,-0.676 0.009,-1.086 m 1.947,-5.078 c 0,0 -10.766,-4.035 -3.121,-15.855 0,0 0.681,-0.198 0.2,0.477 l -0.482,0.675 -0.967,1.758 c 0,0 -0.349,1.151 0.473,0.411 l 0.821,-0.739 1.164,-1.077 c 0,0 0.874,1.163 -2.011,4.738 0,0 -0.62,0.945 0.264,0.885 0,0 0.341,-0.133 0.753,-0.673 l 0.412,-0.54 c 0,0 0.8,-0.933 0.75,-0.333 0,0 0.26,1.43 -2.203,3.377 0,0 -0.76,1.42 0.196,0.886 0,0 1.094,-0.874 1.508,-1.618 0,0 1.231,-0.872 0.675,0.549 l -1.381,2.502 c 0,0 -0.415,0.88 -0.009,1.155 0,0 0.606,0.549 0.954,-0.467 0,0 0.488,-1.355 0.692,-1.353 0,0 0.343,-0.405 0.264,0.818 0,0 0.108,3.126 1.051,4.085 0,0 0.676,0.346 -0.003,0.339 m 18.7,13.14 -1.414,-1.439 c -1.415,-1.439 -0.801,-1.637 -0.801,-1.637 1.225,-0.193 2.983,0.705 2.983,0.705 3.038,2.065 2.539,4.71 2.539,4.71 -1.694,-0.49 -3.307,-2.339 -3.307,-2.339 m -4.589,-3.505 c 0,0 3.78,2.751 4.026,5.606 0,0 -0.208,0.542 -0.882,-0.076 0,0 -3.438,-3.086 -4.572,-5.474 0,0 -0.199,-0.546 0.752,-0.402 0,0 0.339,0.072 0.676,0.346 m -3.521,-1.253 c 0,0 4.577,4.863 4.416,7.579 l -0.211,0.949 c 0,0 -0.873,-1.366 -1.344,-1.778 0,0 -3.959,-5.402 -4.151,-6.83 0,0 0.141,-0.474 1.29,0.08 m 16.028,0.481 3.211,-2.146 c 0,0 0.887,-0.535 0.2,0.478 l -1.236,1.483 c 0,0 -0.277,0.473 0.336,0.41 0,0 1.154,0.147 0.54,0.345 0,0 -4.283,0.37 -3.051,-0.57 m -2.047,0.933 c 0,0 2.247,-0.524 4.06,1.666 0,0 0.74,1.026 -1.631,0.325 0,0 -2.642,-0.974 -2.429,-1.991 m -3.47,0.648 1.902,0.016 c 0,0 2.429,1.788 2.488,2.808 0,0 -0.48,0.471 -1.966,-0.425 0,0 -3.246,-1.727 -2.424,-2.399 m 5.339,-4.572 0.055,1.495 c -0.28,0.881 -2.323,1.338 -2.323,1.338 0.005,-0.543 2.268,-2.833 2.268,-2.833 m -22.672,-1.83 c -0.265,-0.75 0.478,-0.268 0.478,-0.268 0.736,1.229 0.39,1.906 0.39,1.906 z m 0.903,-2.166 c 0,0 1.535,3.002 2.823,3.353 0,0 2.162,1.31 2.765,2.198 0,0 -4.202,-0.988 -5.796,-5.145 0,0 -0.199,-0.478 0.208,-0.406 m 14.78,3.187 c -0.681,-0.006 -1.615,-1.713 -1.615,-1.713 -0.535,-1.091 -0.051,-2.038 -0.051,-2.038 l 0.548,-0.402 c 1.295,-0.533 1.272,2.048 1.272,2.048 0.061,0.884 0.325,1.566 0.325,1.566 0.265,0.749 -0.479,0.539 -0.479,0.539 m -3.998,-1.257 c -0.327,-0.869 0.151,-1.63 0.151,-1.63 l 0.477,-0.199 c 1.294,-0.329 0.585,2.994 0.585,2.994 -0.21,0.677 -1.213,-1.165 -1.213,-1.165 m -2.165,-0.971 0.952,-0.128 c 0,0 -0.212,1.017 0.263,1.022 0,0 -1.023,0.466 -1.215,-0.894 m 7.505,-3.67 c 0.683,-0.538 1.215,0.826 1.215,0.826 0.532,1.431 -0.031,3.464 -0.031,3.464 -1.355,-0.352 -2.486,-3.011 -2.486,-3.011 -0.132,-0.545 1.302,-1.279 1.302,-1.279 m 2.467,-2.559 1.876,3.005 c -1.839,0.595 -3.181,-1.183 -3.181,-1.183 z m 1.042,-2.505 1.273,1.981 c 0,0 0.142,0.144 0.066,0.273 -0.143,0.241 -1.627,-0.354 -1.627,-0.354 -0.812,-0.347 0.288,-1.9 0.288,-1.9 m 0.087,-2.105 0.078,-1.222 c 0,0 0.41,-0.268 1.083,0.349 0,0 1.485,1.304 1.824,1.307 0,0 1.044,0.675 -0.484,0.879 0,0 -1.359,0.124 -2.501,-1.313 m 0.228,-2.783 c 0,0 -0.113,-2.582 -0.65,-3.334 0,0 -0.537,-0.82 0.027,-3.057 0,0 0.479,-0.404 0.471,0.479 l -0.007,0.883 -0.01,1.088 c 0,0 0.06,0.883 0.676,0.413 l 0.615,-0.47 c 0,0 1.164,-0.94 1.018,0.077 0,0 -0.147,1.221 -1.783,2.022 0,0 -0.619,0.742 0.128,0.817 l 0.747,0.074 c 0,0 1.29,0.011 0.333,0.75 0,0 -0.481,0.607 -1.565,0.258 m -3.54,-6.824 c 2.24,0.155 2.322,6.27 2.322,6.27 -0.647,-3.538 -2.322,-6.27 -2.322,-6.27 m 2.088,9.8 c 0.62,-1.013 0.501,-2.984 0.501,-2.984 0.444,3.604 -0.309,4.277 -0.309,4.277 -0.341,-0.003 -0.192,-1.293 -0.192,-1.293 m -1.567,0.327 c 2.284,2.94 0.237,4.145 0.237,4.145 -0.883,-0.144 -0.237,-4.145 -0.237,-4.145 m -19.329,-3.297 0.01,-1.223 c 0.012,-1.222 0.212,-0.88 0.212,-0.88 0.679,0.073 1.454,4.564 1.454,4.564 l -0.027,3.057 c -1.965,-0.561 -1.649,-5.518 -1.649,-5.518 m 0.772,-2.846 c -0.533,-1.227 -0.915,-4.016 -0.915,-4.016 l 0.097,-3.328 c 0.064,0.477 1.518,5.041 1.518,5.041 l 0.53,1.499 c 0.53,1.499 0.102,3.805 0.102,3.805 -0.26,-1.361 -1.332,-3.001 -1.332,-3.001 m -0.654,-10.535 c 0.822,-0.672 1.633,-0.257 1.633,-0.257 1.344,0.971 1.326,3.611 1.326,3.611 l -0.059,6.657 z m 2.865,-1.334 -0.123,-1.427 c 0,0 1.491,0.353 2.314,-0.59 0,0 1.023,-0.468 -0.004,0.543 0,0 -1.166,1.212 -2.187,1.474 m 7.502,27.171 c 2.867,-1.401 4.132,-6.348 4.132,-6.348 1.074,1.571 0.308,3.67 0.308,3.67 -0.144,0.882 0.947,0.416 0.947,0.416 1.304,-1.551 2.015,-5.077 2.015,-5.077 1.474,2.323 0.306,3.807 0.306,3.807 -2.063,2.835 -7.71,3.872 -7.71,3.872 -0.339,-0.003 0.002,-0.34 0.002,-0.34 m -10.037,-5.158 c 0,0 -0.085,-0.495 -0.096,-1.045 -0.019,-1.018 0.613,-0.198 0.613,-0.198 1.241,5.717 6.732,6.92 6.732,6.92 -4.087,1.39 -7.225,-4.954 -7.225,-4.954 z m 1.022,33.881 c -0.015,-2.923 1.405,-5.218 1.405,-5.218 l 0.417,-1.083 c 0.417,-1.083 0.455,2.314 0.455,2.314 l 0.049,2.173 c 0.049,2.175 -1.187,3.658 -1.187,3.658 -0.962,1.214 -1.139,-1.844 -1.139,-1.844 m -0.331,-8.698 1.187,-3.589 0.35,-1.22 c 0.351,-1.219 0.478,-0.268 0.478,-0.268 l 0.115,2.378 0.056,1.36 c 0.056,1.359 -1.12,3.726 -1.12,3.726 l -0.346,0.812 c -0.347,0.812 -0.75,0.265 -0.75,0.265 z m 0.621,-8.757 0.182,-5.161 c 0.885,-0.265 0.912,4.423 0.912,4.423 0.117,1.246 -0.153,1.901 -0.153,1.901 -0.552,1.014 -1.118,3.59 -1.118,3.59 -0.587,-2.858 0.177,-4.753 0.177,-4.753 m 3.391,0.709 0.94,1.231 c 0,0 -0.023,2.649 0.31,3.4 0,0 0.314,2.855 -0.235,3.462 0,0 -0.342,0.268 -0.603,-0.889 0,0 -0.254,-2.04 -0.522,-2.517 0,0 -0.401,-0.683 -0.324,-1.77 l 0.078,-1.086 c 0,0 0.088,-2.309 0.356,-1.831 m 2.415,3.418 c 0,0 1.142,1.3 1.192,3.271 l 0.051,1.971 c 0,0 0.167,4.145 -0.641,3.322 0,0 -1.587,-1.348 -1.33,-3.068 0,0 0.573,-3.46 0.728,-5.496 m 2.217,2.601 c 2.7,2.13 1.912,6.605 1.912,6.605 -3.311,-1.863 -1.912,-6.605 -1.912,-6.605 m 2.434,1.448 c 0,0 3.521,1.186 5.774,-0.017 0,0 0.82,-0.536 0.677,0.209 l -0.142,0.747 -0.143,0.746 c 0,0 1.085,0.349 1.905,-0.255 0,0 0.957,-0.807 2.38,-0.387 0,0 0.05,2.038 -4.292,1.525 l -0.272,-0.003 1.073,1.436 c 0,0 0.605,0.752 -0.479,0.471 0,0 -2.644,-0.634 -4.457,-2.959 0,0 -0.811,-0.483 -0.479,0.334 l 1.87,3.685 c 0,0 0.262,1.09 -0.413,0.54 0,0 -1.829,-0.491 -3.41,-6.144 z m -52.864,-118.87 c 0,0 5.512,1.407 7.863,1.881 l 1.161,1.912 1.727,-0.709 c 0,0 0.363,-0.088 0.628,0.64 l 0.266,0.727 0.354,0.908 c 0,0 0.443,1.091 1.175,0.282 l 0.732,-0.809 c 0,0 0.273,-0.178 0.539,0.458 l 0.62,1.636 c 0,0 0.354,0.908 1.265,0.283 l 0.911,-0.626 c 0,0 0.349,-0.304 0.541,0.277 0.244,0.734 0.266,0.726 0.266,0.726 l 0.53,1.454 c 0,0 0.265,0.818 0.905,0.099 l 0.641,-0.72 0.752,-0.831 1.76,3.481 c 0,0 0.442,1.181 1.174,0.372 l 0.733,-0.809 c 0,0 1.371,-1.527 1.357,0.103 0,0 0.072,2.084 0.98,1.911 l 1.549,-1.164 c 0,0 0.821,-0.627 1.356,0.284 l 0.536,0.911 0.446,0.819 2.098,-1.703 c 0,0 0.733,-0.899 1.632,-0.167 l 0.899,0.733 0.629,0.549 1.739,-2.068 c 0,0 0.501,-0.601 1.085,0.191 0.689,0.933 0.717,0.912 0.717,0.912 0,0 0.537,0.729 1.175,0.282 l 0.638,-0.447 c 0,0 0.915,-1.079 1.361,-0.26 l 0.445,0.819 c 0,0 0.307,0.38 -0.462,1.083 -0.522,0.477 -0.548,0.448 -0.548,0.448 0,0 -1.638,1.609 -2.254,0.995 l -0.555,-0.748 c 0,0 -0.176,-0.635 -1.361,0.26 l -1.186,0.895 c 0,0 -0.719,0.807 -0.997,0.081 0,0 -0.618,-1.816 -1.351,-0.827 l -0.733,0.99 c 0,0 -0.825,1.08 -1.356,-0.284 0,0 -0.174,-0.906 -0.813,-0.278 0,0 -0.645,1.171 -1.272,0.532 0,0 -1.162,-1.822 -2.352,-0.474 l -1.189,1.348 c 0,0 -1.139,1.611 -1.728,0.71 l -2.414,-3.464 -0.547,0.448 c 0,0 -0.582,0.616 -0.815,-0.007 -0.243,-0.646 -0.266,-0.636 -0.266,-0.636 0,0 -0.282,-0.892 -0.9,-0.642 l -0.638,0.357 c 0,0 -0.637,0.447 -0.989,-0.824 l -0.26,-1.361 c 0,0 -0.26,-1.361 -1.169,-1.007 l -0.908,0.355 c 0,0 -0.94,0.516 -1.173,-0.554 l -0.351,-1.272 c 0,0 -0.03,-0.705 -0.721,-0.368 -0.802,0.389 -0.818,0.355 -0.818,0.355 0,0 -0.819,0.356 -1.263,-0.555 l -0.445,-0.909 c 0,0 -0.265,-0.818 -0.811,-0.46 l -0.547,0.357 c 0,0 -0.768,0.637 -0.956,0.155 -0.202,-0.521 -0.307,-0.709 -0.307,-0.709 l -0.353,-1.091 c 0,0 -0.056,-0.479 -0.813,-0.188 -0.911,0.35 -0.909,0.355 -0.909,0.355 0,0 -0.904,0.484 -0.994,-0.281 0,0 -0.166,-1.722 -0.622,-1.364 l -0.456,0.358 c 0,0 -0.823,0.898 -1.178,-0.01 l -0.441,-1.272 c 0,0 -0.439,-1.544 -1.532,-0.829 l -0.91,0.445 c 0,0 -0.086,-0.454 0.099,-0.996 0,0 0.187,-0.632 -0.719,-0.55 0,0 -1.089,0.172 -0.631,-0.457 z m 85.749,2.75 -0.289,1.99 c 0,0 -0.638,0.356 -1.358,-0.193 0,0 -0.905,-0.009 -1.27,0.35 l -0.112,2.174 c 0,0 -0.365,0.45 -1.086,0.081 l -0.721,-0.369 -0.902,-0.461 c 0,0 -0.739,-0.394 -0.913,0.716 l -0.1,1.177 c 0,0 -0.33,1.329 -1.544,0.44 0,0 -1.797,-1.738 -1.64,0.981 l 0.08,1.269 c 0,0 0.098,0.986 -1.001,0.534 l -1.082,-0.462 c 0,0 -1.172,-0.644 -1.276,0.894 l -0.104,1.54 c 0,0 -0.192,1.085 -1.002,0.534 l -0.81,-0.551 -0.99,-0.642 c 0,0 -0.727,0.175 -0.827,1.26 0,0 0.079,1.359 -1.002,0.716 l -1.081,-0.734 c 0,0 -1.094,0.805 -1.194,1.801 0,0 -0.103,1.538 -0.83,1.713 l -2.785,-2.47 c 0,0 -0.811,-0.64 -1.362,0.351 l -1.013,1.893 c 0,0 -0.64,0.538 -1.628,-0.286 l -1.259,-1.008 c 0,0 -0.807,-1.003 -1.63,-0.014 l -1.009,1.259 c 0,0 -0.459,0.721 -1.267,-0.011 l -0.81,-0.732 -1.168,-1.006 c 0,0 -0.894,-1.186 -1.901,0.074 l -1.007,1.259 c 0,0 -0.733,0.989 -1.18,0.261 l -0.446,-0.729 -1.969,-2.825 c 0,0 -0.289,-0.77 0.466,-1.354 0.716,-0.555 0.729,-0.537 0.729,-0.537 0,0 0.913,-0.807 1.45,-0.078 l 1.973,2.281 c 0,0 0.54,0.814 1.063,0.162 0.351,-0.439 0.544,-0.752 0.544,-0.752 0,0 0.833,-1.479 1.301,-0.652 l 0.533,1.182 c 0,0 0.267,0.761 0.941,-0.095 0.544,-0.691 0.698,-0.887 0.698,-0.887 0,0 0.647,-1.155 1.455,-0.62 l 0.988,0.914 c 0,0 0.809,0.641 0.998,-0.263 0,0 0.104,-1.448 1.094,-0.715 l 0.719,0.641 c 0,0 0.307,0.511 0.636,-0.267 0.379,-0.898 0.37,-0.902 0.37,-0.902 0,0 0.187,-0.723 0.907,-0.173 l 0.72,0.549 c 0,0 0.809,0.732 1.087,-0.081 0,0 0.015,-1.63 0.826,-1.079 0,0 0.986,1.096 1.267,0.102 l 0.008,-0.816 c 0,0 0.37,-1.083 1.54,-0.167 0,0 1.891,1.285 2.083,-0.072 0,0 0.013,-1.359 0.913,-0.717 0,0 0.989,0.824 1.177,0.101 l 0.371,-0.902 c 0,0 0.188,-0.995 0.909,-0.536 0,0 0.81,0.641 0.906,0.008 0,0 -0.166,-1.722 1.096,-1.077 l 0.721,0.459 c 0,0 0.81,0.551 1,-0.443 0,0 0.102,-1.358 0.733,-0.99 0,0 1.358,0.725 1.183,-0.443 0,0 -0.201,-1.378 2.459,-1.609 0,0 3.174,-0.515 3.899,-0.598 0,0 1.18,-0.256 1.725,-0.348 m -51.649,2.532 c -11.603,1.075 -18.444,-3.786 -18.444,-3.786 l -3.17,0.063 c -0.095,0.452 0.075,1.722 0.075,1.722 0.094,0.784 1.172,0.351 1.172,0.351 l 1.225,-0.096 c 0.53,1.453 1.116,1.859 1.116,1.859 l 1.543,-0.349 c 1.193,-0.296 1.185,0.621 1.185,0.621 0,0 -0.003,0.412 0.161,0.841 0.277,0.721 0.812,0.46 0.812,0.46 l 1.183,-0.715 c 1.095,-0.987 2.062,2.374 2.062,2.374 0,0 -0.013,0.006 0.356,0.728 0.285,0.558 0.722,0.278 0.722,0.278 l 1.641,-1.254 c 0.91,-0.445 1.079,0.915 1.079,0.915 l 0.084,0.816 c -0.009,0.997 0.722,0.278 0.722,0.278 l 1.094,-0.896 c 0.913,-0.716 1.708,1.555 1.708,1.555 0.451,1.046 1.175,0.282 1.175,0.282 l 1.279,-1.257 c 0.913,-0.717 1.806,0.56 1.806,0.56 1.121,1.22 1.994,-0.164 1.994,-0.164 l 0.733,-0.899 c 0.732,-0.899 1.361,-0.26 1.361,-0.26 l 0.807,0.913 c 0.805,1.094 1.816,-0.528 1.816,-0.528 0.917,-1.165 1.449,0.104 1.449,0.104 1.158,2.184 2.534,0.203 2.534,0.203 0.848,-1.09 1.453,-0.348 1.453,-0.348 l 2.06,2.463 c 0.399,0.329 0.725,-0.175 0.725,-0.175 l 1.378,-1.98 0.894,1.094 c 0.359,0.547 0.907,0.008 0.907,0.008 l 0.64,-0.719 c 0.732,-0.718 1.362,-0.35 1.362,-0.35 l 1.348,1.099 0.429,-0.701 c 0.578,-1.006 1.749,0.176 1.749,0.176 0.449,0.549 0.634,0.097 0.634,0.097 l 1.37,-1.347 0.81,0.642 c 0.629,0.458 0.905,0.098 0.905,0.098 l 0.828,-1.442 1.26,0.917 0.551,-0.901 c 0.461,-0.901 1.63,-0.076 1.63,-0.076 1.265,0.373 1.272,-0.261 1.272,-0.261 l 0.097,-0.904 1.629,0.286 c 0.493,0.178 0.546,-0.267 0.546,-0.267 l 0.278,-0.723 c 0.28,-0.993 1.091,-0.533 1.091,-0.533 l 0.632,0.277 0.918,-1.35 1.355,0.465 c 1.362,-0.441 0.101,-1.267 0.101,-1.267 -2.35,-0.475 -5.532,0.857 -5.532,0.857 -5.544,2.215 -14.489,-0.31 -14.489,-0.31 -0.995,-0.281 -1.633,0.167 -1.633,0.167 -8.902,3.091 -16.397,0.579 -16.397,0.579 -0.812,-0.459 -2.081,-0.29 -2.081,-0.29"
           style="fill:#00a650;fill-opacity:1;fill-rule:nonzero;stroke:none"
           id="path122" /><path
           d="m 302.617,599.352 c 0.14,-0.418 1.608,0.473 1.39,1.011 -0.218,0.538 -1.528,-0.594 -1.39,-1.011 m 0.735,1.922 c 0.825,0.058 0.376,1.833 -0.084,1.833 -0.461,0 -1.145,-1.919 0.084,-1.833 m -2.119,1.611 c 0.006,-0.679 0.948,0.348 0.948,0.348 -0.004,0.408 0.467,0.819 0.467,0.819 -0.207,0.338 -0.409,0.269 -0.409,0.269 -1.079,0.046 -1.006,-1.436 -1.006,-1.436 m 4.537,1.671 c 0.607,0.277 -0.006,0.611 -0.006,0.611 -0.543,-0.141 -0.818,0.333 -0.818,0.333 -0.55,0.538 -0.747,-0.075 -0.747,-0.075 -0.193,-1.292 1.571,-0.869 1.571,-0.869 m -5.026,-7.857 c 0.282,-1.152 1.364,-0.599 1.364,-0.599 0.559,0.195 0.4,0.819 0.4,0.819 0.946,0.484 0.26,1.293 0.26,1.293 -0.326,0.686 -1.222,-0.079 -1.222,-0.079 -0.607,-0.413 -0.802,-1.434 -0.802,-1.434 m 3.24,2.202 c -0.737,-1.093 0.357,-1.966 0.357,-1.966 0.611,0.005 0.671,1.024 0.671,1.024 0.017,0.311 0.062,0.613 0.062,0.613 0.331,0.885 -0.416,0.947 -0.416,0.947 -0.476,0.131 -0.674,-0.618 -0.674,-0.618 m -3.609,1.123 c -0.358,-1.013 0.285,-1.423 0.285,-1.423 l 1.011,0.892 c 0.877,0.55 0.6,1.363 0.6,1.363 -0.21,0.61 -0.752,0.401 -0.752,0.401 -1.082,-0.485 -1.144,-1.233 -1.144,-1.233 m 2.558,-5.003 c -0.133,-0.478 0.276,-0.677 0.276,-0.677 -0.266,-0.614 0.622,-1.151 0.622,-1.151 0.885,-0.195 0.877,0.688 0.877,0.688 -0.289,1.968 -1.24,2.027 -1.24,2.027 -0.34,0.065 -0.535,-0.887 -0.535,-0.887 m 2.108,-0.321 0.275,-0.406 c 0.275,-0.405 0.484,-0.947 0.484,-0.947 l 0.479,-0.471 c 0.615,-0.334 1.016,0.416 1.016,0.416 0.801,1.57 -1.652,2.499 -1.652,2.499 -1.226,0.193 -0.602,-1.091 -0.602,-1.091 m -0.33,6.586 c 0,0 1.227,-0.397 1.562,0.013 0,0 -0.002,2.345 -1.578,1.684 -0.397,-0.166 -0.668,-1.228 0.016,-1.697 m 2.518,-0.522 c -0.542,-0.072 -0.055,-1.427 -0.055,-1.427 l 0.549,-0.674 0.547,-0.403 c 0.546,-0.402 0.68,-0.062 0.68,-0.062 -0.071,0.271 0.333,0.615 0.333,0.615 0.405,0.411 -0.076,0.882 -0.076,0.882 l -0.958,0.943 c -0.683,0.333 -1.02,0.126 -1.02,0.126 m -0.863,-2.317 c -0.675,-0.617 0.013,-1.562 0.013,-1.562 l 0.413,-0.472 c 0.411,-0.472 1.224,-0.193 1.224,-0.193 0.81,0.551 -0.214,1.153 -0.214,1.153 -0.203,-0.002 -0.891,0.875 -0.891,0.875 z m 1.175,5.377 -0.612,0.198 c -0.816,-0.007 -0.127,-1.087 -0.127,-1.087 l 0.828,-1.42 1.147,0.825 c -0.34,0.065 -1.236,1.484 -1.236,1.484 m -12.152,7.025 c -0.475,-0.106 -0.816,0.027 -0.816,0.027 -0.579,0.267 -0.746,-0.108 -0.746,-0.108 0.097,-0.918 -0.051,-1.902 -0.051,-1.902 0.149,-1.562 -0.178,-2.923 -0.178,-2.923 -0.391,-1.906 0.694,-1.692 0.694,-1.692 l 0.238,0.035 0.442,-0.132 c 1.02,-0.126 0.738,0.992 0.738,0.992 -0.215,1.424 0.094,4.892 0.094,4.892 0.221,0.931 -0.415,0.811 -0.415,0.811 m -0.473,-7.952 c -0.476,-0.038 -0.747,-0.074 -0.747,-0.074 -0.853,0.332 -0.666,-1.5 -0.666,-1.5 0.14,-0.475 -0.047,-2.379 -0.047,-2.379 -0.186,-1.971 0.698,-2.099 0.698,-2.099 0.576,0.039 0.816,-0.129 0.816,-0.129 1.089,-0.262 0.944,0.756 0.944,0.756 l -0.037,4.212 c 0.122,1.63 -0.961,1.213 -0.961,1.213 m -0.277,-7.135 c -0.203,-0.07 -0.748,0.129 -0.748,0.129 -0.307,0.032 -0.264,-0.953 -0.264,-0.953 l 0.037,-4.211 0.082,-1.561 c 0.082,-1.562 1.639,-0.937 1.639,-0.937 0.474,0.072 0.738,1.025 0.738,1.025 l -0.12,5.841 c 0.06,0.952 -1.364,0.667 -1.364,0.667 m -0.469,-8.495 c -0.816,0.129 -0.47,-0.547 -0.47,-0.547 0,0 0.012,-0.12 0.039,-0.68 0.042,-0.849 0.054,-2.241 0.054,-2.241 -0.224,-2.476 1.447,-2.229 1.447,-2.229 1.29,0.011 1.143,1.233 1.143,1.233 -0.215,1.288 -0.029,3.26 -0.029,3.26 0.065,0.409 0.129,0.816 0.129,0.816 -0.343,0.981 -1.43,0.463 -1.43,0.463 z m -0.215,-6.32 0.078,-1.154 c -0.06,-0.917 -0.112,-2.718 -0.112,-2.718 -0.051,-1.903 1.103,-1.892 1.103,-1.892 l 0.951,0.008 c 0.679,0.006 0.524,2.247 0.524,2.247 -0.144,0.881 -0.164,3.19 -0.164,3.19 -0.41,0.337 -2.38,0.319 -2.38,0.319 m 0.298,-8.331 c -0.13,-0.495 -0.067,-2.468 -0.067,-2.468 l -0.062,-0.747 c -0.061,-0.749 0.413,-0.541 0.413,-0.541 0.406,0.14 0.612,-0.13 0.612,-0.13 1.158,-0.261 1.289,0.216 1.289,0.216 0.601,1.228 0.043,2.853 0.043,2.853 -0.143,0.814 -0.084,1.765 -0.084,1.765 0,0 -0.031,-0.165 0.031,0.374 0.031,0.272 -0.343,0.337 -0.343,0.337 -0.173,-0.129 -0.441,0.031 -0.441,0.031 -0.273,0.065 -0.612,-0.006 -0.612,-0.006 -1.122,0.159 -0.779,-1.684 -0.779,-1.684 m 1.979,-11.145 c 0,0 0.779,0.211 0.602,1.092 l -0.073,0.611 c 0,0 -0.093,2.852 0.038,3.329 0,0 0.16,1.19 -0.69,1.217 l -1.019,-0.01 c 0,0 -0.818,0.333 -0.808,-0.753 0,0 -0.028,-0.68 -0.058,-1.156 0,0 -0.197,-0.749 -0.045,-2.513 0,0 -0.121,-1.768 0.559,-1.762 0,0 1.086,-0.025 1.494,-0.055 m -0.536,-0.752 -0.748,-0.007 c -0.747,-0.006 -0.675,-0.481 -0.675,-0.481 l 0.008,-0.882 c 0.347,-0.813 0.011,-1.291 0.011,-1.291 l 0.013,-1.427 c 0.012,-1.426 0.285,-1.491 0.285,-1.491 l 0.618,-0.675 c 0,0 0.012,0.013 0.753,-0.74 0.575,-0.584 0.75,-0.265 0.75,-0.265 0.537,0.684 0.251,2.311 0.251,2.311 -0.142,0.747 -0.029,3.261 -0.029,3.261 l -0.007,0.815 c -0.007,0.815 -0.754,0.808 -0.754,0.808 z"
           style="fill:#a54f49;fill-opacity:1;fill-rule:nonzero;stroke:none"
           id="path124" /><path
           d="m 361.642,407.387 c -3.081,-1.779 -5.116,-2.953 -9.97,-2.953 -4.855,0 -6.891,1.175 -9.971,2.953 -3.781,2.183 -8.488,4.899 -17.237,4.899 -8.75,0 -13.458,-2.716 -17.239,-4.899 -3.081,-1.778 -5.117,-2.953 -9.972,-2.953 -4.856,0 -6.892,1.175 -9.973,2.953 -3.781,2.183 -8.488,4.899 -17.238,4.899 -8.75,0 -13.457,-2.716 -17.239,-4.899 -3.081,-1.778 -5.116,-2.953 -9.972,-2.953 -4.857,0 -6.893,1.175 -9.974,2.953 -3.096,1.787 -6.815,3.928 -12.859,4.647 0.53,-5.068 1.299,-9.989 2.275,-14.761 1.098,-0.472 2.13,-1.066 3.318,-1.751 3.782,-2.183 8.49,-4.899 17.24,-4.899 8.75,0 13.457,2.716 17.239,4.899 3.08,1.778 5.116,2.952 9.972,2.952 4.855,0 6.891,-1.174 9.972,-2.952 3.782,-2.183 8.489,-4.899 17.239,-4.899 8.749,0 13.456,2.716 17.238,4.899 3.081,1.778 5.116,2.952 9.973,2.952 4.853,0 6.889,-1.174 9.971,-2.952 3.781,-2.183 8.487,-4.899 17.237,-4.899 8.749,0 13.456,2.716 17.237,4.899 1.508,0.87 2.768,1.595 4.228,2.109 0.946,4.686 1.692,9.516 2.211,14.489 -6.546,-0.611 -10.47,-2.866 -13.706,-4.733"
           style="fill:#00adef;fill-opacity:1;fill-rule:nonzero;stroke:none"
           id="path126" /><path
           d="m 361.642,380.973 c -3.081,-1.78 -5.116,-2.952 -9.97,-2.952 -4.855,0 -6.891,1.174 -9.971,2.952 -3.781,2.182 -8.488,4.898 -17.237,4.898 -8.75,0 -13.458,-2.716 -17.239,-4.898 -3.081,-1.778 -5.117,-2.952 -9.972,-2.952 -4.856,0 -6.892,1.174 -9.973,2.952 -3.781,2.182 -8.488,4.898 -17.238,4.898 -8.75,0 -13.457,-2.716 -17.239,-4.898 -3.081,-1.778 -5.116,-2.952 -9.972,-2.952 -4.857,0 -6.893,1.174 -9.974,2.952 -2.032,1.172 -4.337,2.495 -7.385,3.471 1.925,-6.51 4.226,-12.702 6.8,-18.577 2.757,-0.967 6.142,-1.66 10.559,-1.66 8.75,0 13.457,2.717 17.239,4.899 3.08,1.779 5.116,2.954 9.972,2.954 4.855,0 6.891,-1.175 9.972,-2.954 3.782,-2.182 8.489,-4.899 17.239,-4.899 8.749,0 13.456,2.717 17.238,4.899 3.081,1.779 5.116,2.954 9.973,2.954 4.853,0 6.889,-1.175 9.971,-2.954 3.781,-2.182 8.487,-4.899 17.237,-4.899 4.955,0 8.611,0.872 11.54,2.024 2.547,5.85 4.821,12.011 6.726,18.488 -3.51,-0.992 -6.068,-2.46 -8.296,-3.746"
           style="fill:#00adef;fill-opacity:1;fill-rule:nonzero;stroke:none"
           id="path128" /><path
           d="m 270.042,345.645 c 4.855,0 6.891,-1.175 9.972,-2.953 3.782,-2.182 8.489,-4.899 17.239,-4.899 8.749,0 13.456,2.717 17.238,4.899 3.081,1.778 5.116,2.953 9.973,2.953 4.853,0 6.889,-1.175 9.971,-2.953 3.136,-1.81 6.918,-3.983 13.108,-4.673 3.016,4.41 5.935,9.105 8.686,14.074 -1.25,-0.315 -2.695,-0.489 -4.557,-0.489 -4.855,0 -6.891,1.176 -9.971,2.954 -3.781,2.182 -8.488,4.899 -17.237,4.899 -8.75,0 -13.458,-2.717 -17.239,-4.899 -3.081,-1.778 -5.117,-2.954 -9.972,-2.954 -4.856,0 -6.892,1.176 -9.973,2.954 -3.781,2.182 -8.488,4.899 -17.238,4.899 -8.75,0 -13.457,-2.717 -17.239,-4.899 -3.081,-1.778 -5.116,-2.954 -9.972,-2.954 -1.421,0 -2.596,0.104 -3.631,0.292 2.699,-4.862 5.557,-9.46 8.509,-13.786 5.75,0.776 9.352,2.846 12.361,4.582 3.08,1.778 5.116,2.953 9.972,2.953"
           style="fill:#00adef;fill-opacity:1;fill-rule:nonzero;stroke:none"
           id="path130" /><path
           d="m 340.732,328.698 c -3.628,2.063 -8.248,4.343 -16.268,4.343 -8.75,0 -13.458,-2.716 -17.239,-4.898 -3.081,-1.778 -5.117,-2.953 -9.972,-2.953 -4.856,0 -6.892,1.175 -9.973,2.953 -3.781,2.182 -8.488,4.898 -17.238,4.898 -7.612,0 -12.163,-2.056 -15.709,-4.027 3.038,-3.918 6.111,-7.57 9.149,-10.945 1.726,0.731 3.629,1.161 6.56,1.161 4.855,0 6.891,-1.175 9.972,-2.953 3.782,-2.183 8.489,-4.899 17.239,-4.899 8.749,0 13.456,2.716 17.238,4.899 3.081,1.778 5.116,2.953 9.973,2.953 3.253,0 5.24,-0.53 7.125,-1.414 3.034,3.358 6.105,6.984 9.143,10.882"
           style="fill:#00adef;fill-opacity:1;fill-rule:nonzero;stroke:none"
           id="path132" /><path
           d="m 219.148,434.136 c 0,0 0.008,-8.276 0.039,-9.527 2.534,-0.447 4.208,-1.405 6.404,-2.673 3.782,-2.183 8.49,-4.899 17.24,-4.899 8.75,0 13.457,2.716 17.239,4.899 3.08,1.778 5.116,2.953 9.972,2.953 4.855,0 6.891,-1.175 9.972,-2.953 3.782,-2.183 8.489,-4.899 17.239,-4.899 8.749,0 13.456,2.716 17.238,4.899 3.081,1.778 5.116,2.953 9.973,2.953 4.853,0 6.889,-1.175 9.971,-2.953 3.781,-2.183 8.487,-4.899 17.237,-4.899 8.749,0 13.456,2.716 17.237,4.899 2.43,1.403 4.214,2.427 7.24,2.797 0.028,1.21 0.045,9.403 0.045,9.403 z"
           style="fill:#00adef;fill-opacity:1;fill-rule:nonzero;stroke:none"
           id="path134" /></g></g></g></svg>
